<svg width="351" height="351" viewBox="0 0 351 351" fill="none" xmlns="http://www.w3.org/2000/svg">
<rect width="351" height="351" fill="black"/>
<path d="M139.032 89.1627L105.24 153.098C98.4801 165.524 100.435 171.002 102.476 173.078C104.951 175.595 110.369 176.407 115.913 174.45C123.792 171.668 126.968 165.485 126.683 161.27C126.545 159.241 125.738 157.401 124.462 155.832C122.942 153.964 120.022 153.235 115.102 155.296L112.325 149.018C118.646 145.818 124.749 146.869 128.733 149.474C132.784 152.122 134.879 156.292 135.177 160.695C135.763 169.341 129.611 178.643 118.747 182.478C111.693 184.969 102.192 184.931 96.4059 179.048C90.1897 172.727 90.5458 162.268 97.7905 148.975L97.8212 148.918L97.8539 148.862L112.035 124.62C105.832 127.216 98.7022 127.693 91.5687 123.235L96.0814 116.015C100.69 118.895 105.19 118.532 109.854 116.269C114.531 114.001 121.388 106.727 124.807 101.716C118.7 105.64 109.743 108.729 100.307 107.752L101.184 99.2828C114.371 100.648 124.299 92.9044 133.073 84.4789L139.032 89.1627ZM61.8087 93.6745C69.6183 85.7146 82.3973 83.4137 90.244 91.1122C98.0906 98.8106 96.0333 111.63 88.2239 119.59C80.4143 127.55 67.6361 129.852 59.7894 122.153C51.9427 114.454 53.9992 101.634 61.8087 93.6745ZM84.2805 97.1903C80.8952 93.869 73.6036 93.8112 67.8868 99.6381C62.1703 105.465 62.3668 112.754 65.7518 116.075C69.137 119.397 76.4294 119.455 82.1462 113.628C87.863 107.801 87.6657 100.512 84.2805 97.1903Z" fill="#C9C4B5"/>
<path d="M213.502 76.9104C209.353 90.7578 206.858 104.549 205.504 117.52C207.242 116.691 208.995 115.976 210.667 115.367C215.013 113.784 219.146 112.79 221.715 112.35L223.151 120.742C221.071 121.098 217.434 121.963 213.582 123.367C210.325 124.554 207.147 126.044 204.651 127.785C203.081 153.044 205.646 173.898 207.966 183.919L199.671 185.84C198.393 180.319 197.091 172.023 196.329 161.793C191.714 162.306 185.296 163.427 178.177 165.028C168.691 167.162 158.307 170.07 149.846 173.281L146.824 165.32C150.123 164.069 155.299 161.529 159.837 158.1C164.506 154.571 167.744 150.672 168.51 146.89L176.855 148.58C176.178 151.922 174.578 154.937 172.523 157.602C173.798 157.296 175.061 157.003 176.308 156.722C183.668 155.067 190.629 153.834 195.846 153.283C195.515 144.807 195.578 135.351 196.283 125.279C197.389 109.452 200.082 92.0357 205.346 74.4666L213.502 76.9104ZM187.061 104.474C181.551 106.278 173.214 109.713 166.215 114.074C162.713 116.256 159.706 118.573 157.561 120.909C155.387 123.279 154.41 125.328 154.265 127.007C154.048 129.525 154.803 130.655 155.657 131.357C156.767 132.269 158.722 132.97 161.555 133.205C167.223 133.673 174.033 132.093 177.092 130.746C178.634 130.067 178.965 129.524 178.998 129.462C179.008 129.442 179.017 129.428 179.019 129.367C179.022 129.286 179.012 129.079 178.893 128.716C178.637 127.938 178.004 126.807 176.786 125.317C175.595 123.861 174.006 122.253 172.076 120.513L177.776 114.188C179.886 116.09 181.816 118.017 183.378 119.928C184.912 121.805 186.264 123.873 186.983 126.06C187.731 128.341 187.842 130.96 186.519 133.454C185.256 135.832 183.034 137.433 180.525 138.538C176.305 140.396 168.079 142.287 160.853 141.689C157.239 141.39 153.28 140.424 150.251 137.935C146.966 135.235 145.355 131.229 145.782 126.276C146.153 121.979 148.463 118.232 151.288 115.153C154.144 112.041 157.849 109.256 161.712 106.849C163.206 105.918 164.747 105.028 166.305 104.185C159.084 103.127 151.115 100.85 145.445 96.0823L149.424 88.2218C153.664 92.0823 161.211 94.8886 168.056 95.8356C174.782 96.7662 181.371 96.6119 185.286 96.195L187.061 104.474ZM166.071 72.0249C169.158 81.5745 180.725 83.115 185.127 83.4038L184.996 91.8858C178.825 91.4812 162.575 88.8897 157.971 74.6433L166.071 72.0249Z" fill="#C9C4B5"/>
<path d="M260.85 154.403C264.051 155.151 266.685 156.108 268.62 157.238C269.58 157.799 270.541 158.501 271.303 159.391C272.043 160.256 272.902 161.675 272.812 163.518C272.741 164.965 272.161 167.1 271.138 169.21C270.072 171.407 268.339 173.973 265.652 175.982C260.434 179.884 252.987 180.781 243.186 176.221C242.918 176.837 242.752 177.476 242.741 178.089C242.723 179.134 243.126 181.237 247.359 183.619C257.269 189.196 263.311 189.953 265.353 189.964L265.306 198.478C261.504 198.457 254.05 197.155 243.184 191.039C237.03 187.576 234.14 182.941 234.228 177.94C234.307 173.4 236.849 169.715 238.936 167.705L241.217 165.508L243.978 167.061C253.636 172.497 258.34 170.818 260.552 169.164C261.872 168.177 262.833 166.824 263.477 165.496C263.676 165.085 263.827 164.708 263.944 164.382C262.947 163.87 261.313 163.254 258.914 162.694C253.496 161.428 239.871 160.343 227.112 162.696L226.551 154.2C239.272 151.393 254.395 152.895 260.85 154.403ZM286.219 150.839C276.883 148.105 269.609 146.201 260.436 145.471C251.222 144.738 234.125 146.515 216.832 148.716L215.305 140.353C215.23 140.371 220.715 139.344 223.531 137.843C225.075 137.02 227.061 135.841 229.203 134.35C233.537 131.333 238.237 127.228 241.336 122.438L248.485 127.063C245.985 130.927 242.778 134.294 239.541 137.094C248.03 136.497 254.934 136.492 261.111 136.983C271.191 137.785 279.154 139.899 288.611 142.667L286.219 150.839ZM254.775 81.8783C243.104 97.2312 239.719 110.711 239.552 116.529L231.041 116.284C231.269 108.353 235.473 93.1993 247.996 76.7258L254.775 81.8783ZM284.387 92.9851C283.142 97.4207 281.969 101.314 280.826 104.706C283.484 106.135 285.1 107.755 286.982 109.3L281.579 115.881C279.603 114.258 278.768 113.442 277.741 112.761C276.373 115.812 274.915 118.349 273.248 120.33C270.976 123.029 268.266 124.75 264.973 125.302C261.865 125.823 258.691 125.22 255.589 124.252C248.272 121.969 243.533 114.823 244.638 108.169C245.231 104.599 247.507 101.504 251.319 99.8954C254.94 98.3674 259.569 98.3208 264.984 99.6493C268.127 100.42 270.702 101.093 272.85 101.715C273.895 98.5932 274.994 94.9414 276.189 90.6844L284.387 92.9851ZM269.782 109.694C267.97 109.183 265.739 108.6 262.957 107.918C258.517 106.829 255.933 107.19 254.629 107.74C253.516 108.21 253.153 108.865 253.037 109.564C252.723 111.452 254.284 114.925 258.125 116.124C260.745 116.941 262.403 117.099 263.565 116.905C264.541 116.741 265.536 116.27 266.734 114.847C267.679 113.724 268.686 112.076 269.782 109.694Z" fill="#C9C4B5"/>
<path d="M176.563 187.144C174.263 229.511 156.841 276.367 147.767 291.456L139.879 286.713C148.455 272.45 165.178 227.055 167.372 186.646L176.563 187.144ZM154.548 202.475C149.407 209.342 142.294 218.641 135.015 227.836C137.045 232.489 139.724 236.805 142.389 240.38C145.541 244.61 147.343 246.173 148.851 247.326L145.349 256.036C142.925 254.181 138.452 250.501 135.009 245.88C132.834 242.962 130.607 239.551 128.638 235.804C124.036 241.474 119.773 246.54 116.011 250.715C111.139 256.123 106.678 260.04 103.314 262.539L98.5774 254.646C101.529 252.522 104.093 250.192 109.172 244.554C114.001 239.195 120.537 232.494 126.905 224.493C131.362 218.893 135.044 212.9 139.064 207.66C132.318 208.897 123.935 209.403 113.802 207.512L115.49 198.463C131.401 201.433 142.106 197.695 149.458 195.335L154.548 202.475Z" fill="#C9C4B5"/>
<path d="M234.917 198.071C221.517 201.211 210.754 212.113 205.78 222.382C203.265 227.576 202.6 231.855 203.123 234.412C203.362 235.58 203.798 236.185 204.223 236.53C204.653 236.88 205.521 237.326 207.275 237.351C213.139 237.431 216.073 236.477 218.875 236.093C221.615 235.717 223.994 235.091 228.057 234.001C229.356 233.441 228.967 233.655 229.427 233.394C230.113 233.006 231.402 232.202 235.378 229.786L240.728 236.915C236.944 239.215 235.38 240.188 234.523 240.673C234.176 240.869 233.864 241.026 233.573 241.162C227.476 254.065 219.302 265.454 211.001 272.424C229.478 270.691 245.922 271.763 253.829 272.899L252.485 282.259C241.82 280.727 212.025 278.885 185.976 285.519L186.759 274.975C198.464 273.258 210.321 262.352 221.11 244.435C221.282 244.411 220.941 244.46 221.11 244.435C217.488 246.017 213.734 246.897 207.146 246.807C203.784 246.761 200.703 245.856 198.258 243.869C195.807 241.876 194.442 239.158 193.859 236.308C192.737 230.831 194.345 224.301 197.27 218.261C199.451 213.756 202.57 209.105 206.484 204.833C203.51 205.391 200.544 205.867 197.711 206.194C193.196 206.716 188.715 206.903 184.993 206.307L183.279 197.365C185.723 197.756 192.548 197.847 196.773 197.359C200.931 196.878 205.069 196.034 209.658 195.041C219.104 192.996 226.756 190.374 232.718 188.315L234.917 198.071Z" fill="#C9C4B5"/>
</svg>
