<svg width="1318" height="1018" viewBox="0 0 1318 1018" fill="none" xmlns="http://www.w3.org/2000/svg">
<path fill-rule="evenodd" clip-rule="evenodd" d="M1266.46 0.499799C1269.79 -0.298638 1273.43 -0.236072 1276.89 1.3914L1281.39 3.4998C1285.07 5.22983 1287.43 8.25852 1288.76 11.5838L1290.98 17.1072C1291.88 19.3535 1292.59 21.6682 1293.12 24.0447L1294.44 29.9305C1294.97 32.3154 1295.3 34.7287 1295.44 37.1648L1295.78 43.1678C1295.87 44.6787 1296.09 46.1812 1296.45 47.6795L1297.89 53.5769C1298.47 55.965 1298.85 58.3804 1299.03 60.8182L1299.47 66.7996C1299.64 69.1327 1299.67 71.4741 1299.54 73.8201L1299.22 79.8553C1299.15 81.1814 1299.25 82.4935 1299.52 83.8074L1300.74 89.7498C1301.25 92.2081 1301.53 94.689 1301.57 97.1853L1301.68 103.175C1301.72 105.158 1301.76 107.147 1301.8 109.138L1301.93 115.152C1301.98 117.294 1301.98 119.44 1301.91 121.59L1301.74 127.632C1301.71 128.759 1301.86 129.882 1302.21 131.029L1304.01 136.919C1304.75 139.361 1305.26 141.844 1305.52 144.359L1306.14 150.328C1306.41 152.864 1306.41 155.411 1306.16 157.96L1305.55 164.005C1305.39 165.61 1305.36 167.2 1305.45 168.775L1305.78 174.765C1305.89 176.632 1306.04 178.496 1306.24 180.358L1306.87 186.334C1307.09 188.406 1307.28 190.48 1307.43 192.556L1307.88 198.544C1308.07 201.014 1308.04 203.491 1307.78 205.968L1307.17 212.009C1307.01 213.623 1306.96 215.223 1307.05 216.811L1307.35 222.806C1307.45 224.856 1307.54 226.907 1307.6 228.958L1307.79 234.958C1307.85 236.97 1307.91 238.984 1307.96 240.997L1308.12 246.999C1308.17 248.78 1308.29 250.558 1308.49 252.333L1309.14 258.308C1309.36 260.367 1309.56 262.429 1309.73 264.49L1310.23 270.47C1310.41 272.633 1310.52 274.799 1310.56 276.968L1310.68 282.967C1310.71 284.573 1310.86 286.18 1311.13 287.788L1312.12 293.754C1312.53 296.172 1312.73 298.606 1312.73 301.05L1312.74 307.055C1312.74 309.28 1312.65 311.506 1312.47 313.733L1311.97 319.756C1311.88 320.911 1311.96 322.063 1312.24 323.24L1313.66 329.2C1314.39 332.276 1314.47 335.405 1313.89 338.512L1312.77 344.552C1312.6 345.448 1312.62 346.298 1312.84 347.178L1314.31 353.138C1314.95 355.771 1315.26 358.444 1315.23 361.141L1315.15 367.147C1315.12 369.354 1315 371.561 1314.8 373.768L1314.26 379.786C1314.11 381.387 1314.09 382.98 1314.19 384.568L1314.57 390.562C1314.73 393.027 1314.67 395.493 1314.39 397.956L1313.72 403.971C1313.55 405.539 1313.5 407.097 1313.59 408.647L1313.92 414.639C1314.03 416.646 1314.14 418.653 1314.25 420.659L1314.56 426.652C1314.65 428.394 1314.83 430.14 1315.09 431.888L1315.97 437.88C1316.31 440.137 1316.53 442.4 1316.64 444.667L1316.93 450.669C1317.03 452.827 1317.07 454.987 1317.05 457.146L1316.98 463.152C1316.95 465.709 1316.66 468.251 1316.11 470.771L1314.8 476.78C1314.54 477.957 1314.48 479.092 1314.61 480.218L1315.26 486.216C1315.54 488.797 1315.53 491.383 1315.25 493.964L1314.58 499.963C1314.44 501.234 1314.47 502.503 1314.68 503.791L1315.66 509.792C1316.04 512.152 1316.26 514.522 1316.31 516.896L1316.45 522.896C1316.51 525.557 1316.25 528.201 1315.66 530.813L1314.33 536.796C1314.07 537.965 1314 539.101 1314.12 540.237L1314.73 546.245C1314.93 548.223 1315.14 550.202 1315.37 552.182L1316.04 558.198C1316.29 560.523 1316.41 562.851 1316.39 565.179L1316.32 571.182C1316.3 573.387 1316.19 575.59 1316 577.789L1315.48 583.781C1315.31 585.732 1315.16 587.685 1315.02 589.637L1314.6 595.63C1314.47 597.619 1314.33 599.609 1314.2 601.597L1313.8 607.59C1313.68 609.426 1313.62 611.265 1313.6 613.105L1313.57 619.11C1313.56 620.924 1313.61 622.743 1313.73 624.565L1314.12 630.589C1314.3 633.47 1314.02 636.326 1313.28 639.122L1311.71 645.05C1311.47 645.974 1311.42 646.872 1311.56 647.808L1312.46 653.859C1312.88 656.642 1312.89 659.437 1312.48 662.216L1311.61 668.189C1311.34 670.027 1311.12 671.865 1310.96 673.702L1310.44 679.682C1310.27 681.675 1310.09 683.666 1309.92 685.654L1309.4 691.62C1309.26 693.263 1309.22 694.921 1309.29 696.597L1309.54 702.645C1309.64 704.981 1309.6 707.308 1309.41 709.625L1308.93 715.596C1308.74 718.066 1308.32 720.513 1307.68 722.93L1306.13 728.842C1305.81 730.069 1305.68 731.282 1305.72 732.504L1305.93 738.532C1306.01 740.825 1305.97 743.113 1305.8 745.392L1305.37 751.372C1305.21 753.606 1304.95 755.832 1304.58 758.049L1303.61 763.991C1303.33 765.688 1303.14 767.39 1303.05 769.097L1302.72 775.087C1302.61 777.224 1302.44 779.36 1302.21 781.492L1301.56 787.469C1301.35 789.477 1301.13 791.483 1300.9 793.486L1300.22 799.447C1300 801.399 1299.79 803.354 1299.59 805.309L1298.99 811.281C1298.82 813.002 1298.73 814.731 1298.74 816.468L1298.74 822.487C1298.74 824.959 1298.53 827.416 1298.11 829.851L1297.07 835.784C1296.82 837.197 1296.73 838.623 1296.78 840.071L1297.03 846.119C1297.14 848.895 1296.86 851.643 1296.18 854.337L1294.72 860.195C1293.77 863.976 1291.45 867.612 1287.21 869.505L1282.65 871.54C1279.82 872.801 1276.82 873.247 1273.85 873.162L1267.79 872.987C1266.5 872.95 1265.22 873.086 1263.94 873.403L1257.99 874.87C1255.1 875.584 1252.15 875.779 1249.19 875.435L1243.19 874.74C1241.53 874.547 1239.87 874.461 1238.21 874.481L1232.2 874.555C1229.95 874.582 1227.7 874.504 1225.45 874.323L1219.44 873.839C1217.73 873.701 1216.02 873.66 1214.31 873.714L1208.29 873.904C1206.41 873.963 1204.53 874.069 1202.66 874.222L1196.63 874.716C1194.67 874.875 1192.73 875.054 1190.8 875.252L1184.85 875.862C1182.27 876.127 1179.67 876.1 1177.09 875.785L1171.09 875.054C1169.61 874.874 1168.14 874.841 1166.65 874.956L1160.61 875.422C1158.59 875.578 1156.58 875.73 1154.59 875.879L1148.61 876.325C1146.07 876.515 1143.53 876.442 1140.99 876.11L1134.99 875.325C1133.33 875.107 1131.66 874.996 1129.99 874.992L1123.94 874.976C1122.33 874.972 1120.73 875.088 1119.14 875.324L1113.18 876.21C1110.26 876.644 1107.33 876.559 1104.44 875.974L1098.41 874.76C1096.95 874.465 1095.52 874.332 1094.1 874.353L1088.11 874.443C1086.12 874.473 1084.13 874.507 1082.14 874.545L1076.15 874.659C1074.47 874.691 1072.79 874.825 1071.1 875.063L1065.09 875.91C1062.13 876.327 1059.17 876.208 1056.25 875.565L1050.26 874.245C1049.13 873.996 1048.03 873.943 1046.92 874.075L1040.9 874.793C1038.47 875.082 1036.04 875.177 1033.61 875.074L1027.63 874.819C1025.89 874.745 1024.15 874.756 1022.41 874.851L1016.39 875.179C1014.13 875.302 1011.87 875.316 1009.61 875.22L1003.62 874.964C1002.25 874.905 1000.86 875.005 999.449 875.271L993.446 876.405C990.64 876.935 987.806 877.029 984.976 876.679L978.974 875.935C977.085 875.702 975.196 875.508 973.307 875.355L967.299 874.869C966.218 874.781 965.119 874.874 963.969 875.175L957.979 876.742C955.208 877.467 952.382 877.766 949.532 877.615L943.526 877.297C941.241 877.175 938.959 876.932 936.683 876.568L930.676 875.61C928.962 875.336 927.253 875.159 925.549 875.078L919.542 874.792C918.181 874.727 916.814 874.824 915.43 875.089L909.44 876.236C906.976 876.708 904.495 876.956 902.002 876.976L895.994 877.026C894.23 877.041 892.468 877.133 890.709 877.305L884.722 877.891C882.065 878.151 879.404 878.08 876.756 877.684L870.734 876.784C869.141 876.546 867.565 876.438 866.003 876.455L860.021 876.52C858.148 876.541 856.267 876.605 854.38 876.711L848.36 877.049C846.145 877.173 843.932 877.21 841.724 877.159L835.737 877.021C833.451 876.969 831.161 876.791 828.872 876.49L822.845 875.698C821.224 875.485 819.616 875.394 818.02 875.423L812.026 875.529C810.514 875.556 808.991 875.72 807.453 876.026L801.461 877.22C798.992 877.711 796.504 877.976 794.004 878.01L787.995 878.09C786.081 878.115 784.171 878.172 782.27 878.261L776.297 878.539C773.685 878.661 771.075 878.479 768.481 878.007L762.433 876.906C761.432 876.724 760.48 876.74 759.521 876.943L753.559 878.208C751.082 878.733 748.581 879.022 746.064 879.07L740.051 879.184C739.269 879.199 738.422 879.205 737.568 879.177C736.603 879.146 735.728 879.766 735.407 880.677L733.383 886.42C732.975 887.578 732.748 888.759 732.7 889.989L732.462 896.078C732.341 899.162 731.625 902.135 730.327 904.935L727.767 910.461C726.9 912.331 726.034 914.171 725.169 915.978L722.618 921.31C721.862 922.892 721.162 924.52 720.519 926.197L718.364 931.814C717.508 934.048 716.494 936.208 715.324 938.292L712.387 943.525C711.348 945.375 710.268 947.201 709.146 949.002L705.973 954.096C704.831 955.93 703.633 957.729 702.382 959.494L698.902 964.402C698.209 965.381 697.658 966.462 697.253 967.678L695.308 973.514C694.303 976.528 692.708 979.238 690.554 981.575L686.406 986.074C685.568 986.983 684.904 987.972 684.391 989.058L681.802 994.539C680.55 997.19 678.878 999.572 676.809 1001.65L672.546 1005.92C670.883 1007.59 669.129 1009.14 667.282 1010.56L662.593 1014.17C661.13 1015.29 659.5 1016.5 658.183 1017.18L657.316 1017.63L657.24 1017.67L657.164 1017.71C656.241 1018.16 655.124 1017.78 654.67 1016.86L652.678 1012.81C652.276 1011.99 651.705 1011.27 651.002 1010.69L646.879 1007.31C646.237 1006.78 646.144 1005.83 646.671 1005.19C646.808 1005.02 646.978 1004.89 647.17 1004.79L650.037 1003.38L650.721 1003.03C650.723 1003.03 650.726 1003.03 650.729 1003.02C650.808 1002.97 650.944 1002.88 651.145 1002.74C651.549 1002.46 652.106 1002.05 652.836 1001.49L657.526 997.877C658.807 996.892 660.036 995.81 661.215 994.628L665.477 990.352C666.248 989.578 666.861 988.708 667.334 987.706L669.923 982.225C671.135 979.659 672.715 977.32 674.642 975.23L678.789 970.731C679.4 970.069 679.836 969.333 680.128 968.455L682.074 962.618C682.966 959.942 684.224 957.442 685.85 955.148L689.329 950.24C690.397 948.734 691.418 947.199 692.392 945.637L695.565 940.542C696.558 938.947 697.515 937.33 698.435 935.692L701.373 930.459C702.162 929.054 702.845 927.597 703.425 926.086L705.579 920.469C706.372 918.4 707.241 916.378 708.185 914.405L710.736 909.073C711.572 907.326 712.41 905.546 713.25 903.733L715.811 898.208C716.22 897.325 716.437 896.426 716.475 895.452L716.712 889.364C716.823 886.535 717.352 883.772 718.293 881.101L720.318 875.357C720.538 874.731 720.584 874.161 720.473 873.516L719.436 867.529C719.1 865.589 718.754 863.711 718.397 861.896C717.828 859.009 715.95 856.549 713.314 855.24L713.143 855.155C711.834 854.506 710.462 853.975 709.02 853.564L703.301 851.935C701.015 851.284 698.777 850.464 696.589 849.48L691.064 846.995C689.79 846.422 688.487 846.012 687.144 845.758L681.244 844.64C679.486 844.307 677.716 844.044 675.933 843.85L669.954 843.202C668.696 843.066 667.449 843.103 666.193 843.316L660.252 844.323C657.696 844.756 655.109 844.909 652.502 844.788L646.36 844.503C645.444 844.46 644.611 844.602 643.786 844.93L638.112 847.193C637.552 847.417 637.37 847.628 637.263 847.782L634.035 852.417C633.026 853.865 632.003 855.401 630.967 857.027L627.695 862.161C627.011 863.234 626.507 864.354 626.165 865.537L624.496 871.319C623.924 873.302 623.33 875.278 622.715 877.247L620.921 882.989C620.265 885.09 619.534 887.163 618.727 889.207L616.521 894.793C615.721 896.818 614.855 898.816 613.923 900.786L611.352 906.221C610.396 908.242 609.352 910.223 608.22 912.164L605.169 917.394C604.583 918.4 604.167 919.471 603.916 920.639L602.638 926.609C602.112 929.065 601.372 931.45 600.417 933.755L598.118 939.302C597.18 941.566 595.667 944.545 593.722 948.093L591.784 951.627C591.269 952.566 590.09 952.91 589.151 952.395L586.728 951.067C586.499 950.941 586.219 951.111 586.224 951.373L586.225 951.402V951.431C586.233 952.216 586.346 952.997 586.56 953.752L587.291 956.327C588.385 960.184 589.192 963.321 589.648 965.61L590.822 971.508C591.143 973.115 591.57 974.691 592.107 976.237L594.074 981.915C594.678 983.658 595.334 985.744 595.532 987.619L595.567 987.991L595.653 989.192L595.656 989.221L595.658 989.251C595.741 990.524 594.777 991.623 593.504 991.706L588.927 992.006C588.564 992.03 588.203 992.087 587.851 992.176L580.188 994.098C580.134 994.111 580.08 994.079 580.067 994.025C579.95 993.559 579.875 993.083 579.844 992.603L579.696 990.358L579.621 989.344C579.607 989.279 579.584 989.171 579.543 989.015C579.432 988.597 579.245 987.987 578.957 987.155L576.989 981.477C576.214 979.239 575.594 976.956 575.131 974.633L573.956 968.735C573.629 967.093 572.964 964.454 571.898 960.693L570.244 954.861L570.214 954.742L570.2 954.686C570.194 954.663 570.208 954.641 570.23 954.635C570.251 954.629 570.264 954.608 570.26 954.586L570.26 954.583C570.259 954.58 570.259 954.578 570.259 954.575L570.227 951.671L570.204 950.488C570.196 950.05 570.123 948.942 569.928 946.93L569.346 940.931C569.18 939.218 568.922 937.523 568.574 935.846L567.354 929.968C567.03 928.406 566.588 926.871 566.026 925.362L563.921 919.704C563.139 917.601 562.449 915.467 561.852 913.304L560.244 907.483C559.512 904.833 559.153 902.12 559.165 899.366L559.192 893.28C559.196 892.245 559.017 891.251 558.637 890.252L556.453 884.517C555.349 881.617 554.841 878.585 554.946 875.482L555.152 869.382C555.195 868.112 555.06 866.898 554.75 865.714L553.225 859.884C552.619 857.567 552.181 855.213 551.911 852.826L551.231 846.798C551.226 846.753 551.204 846.711 551.173 846.68C551.169 846.676 551.165 846.672 551.16 846.668L546.694 842.515C546.694 842.515 546.693 842.514 546.692 842.513C546.681 842.504 546.667 842.498 546.652 842.498L540.563 842.335C538.466 842.279 536.384 842.198 534.316 842.091L528.315 841.779C525.76 841.646 523.238 841.25 520.757 840.596L514.894 839.049C513.17 838.594 511.441 838.22 509.705 837.927L503.777 836.925C502.194 836.657 500.598 836.508 498.988 836.477L492.97 836.365C490.82 836.325 488.674 836.226 486.533 836.07L480.545 835.633C478.527 835.485 476.51 835.33 474.495 835.166L468.517 834.679C466.325 834.5 464.136 834.24 461.954 833.897L455.992 832.962C454.822 832.778 453.638 832.774 452.414 832.958L446.36 833.868C444.023 834.22 441.683 834.427 439.345 834.487L433.335 834.641C430.713 834.709 428.106 834.474 425.528 833.941L419.576 832.712C417.793 832.343 416.007 832.046 414.22 831.819L408.236 831.059C406.812 830.879 405.385 830.851 403.948 830.978L397.929 831.513C395.281 831.747 392.634 831.662 390.004 831.259L384.016 830.339C382.542 830.113 381.077 830.036 379.611 830.105L373.606 830.39C371.968 830.468 370.322 830.659 368.663 830.964L362.648 832.07C359.697 832.613 356.721 832.619 353.77 832.084L347.78 830.998C346.271 830.724 344.772 830.596 343.279 830.608L337.276 830.659C335.139 830.677 333.001 830.64 330.864 830.548L324.865 830.29C322.849 830.203 320.832 830.11 318.816 830.011L312.815 829.715C311.12 829.631 309.425 829.644 307.729 829.755L301.727 830.147C299.49 830.293 297.252 830.341 295.014 830.288L289.011 830.146C287.55 830.112 286.08 830.224 284.596 830.488L278.595 831.555C275.877 832.038 273.136 832.145 270.395 831.869L264.399 831.265C262.404 831.065 260.407 830.865 258.409 830.667L252.404 830.071C250.832 829.915 249.263 829.887 247.694 829.986L241.692 830.365C239.668 830.493 237.645 830.611 235.622 830.721L229.622 831.049C227.662 831.155 225.704 831.277 223.746 831.413L217.753 831.83C215.74 831.97 213.725 832.104 211.709 832.231L205.709 832.611C203.42 832.756 201.13 832.777 198.842 832.673L192.847 832.399C191.046 832.317 189.243 832.301 187.441 832.351L181.442 832.521C179.385 832.579 177.328 832.615 175.272 832.629L169.274 832.67C167.324 832.683 165.377 832.715 163.433 832.764L157.451 832.917C156.769 832.934 156.484 833.085 156.342 833.178C155.015 834.038 154.352 835.626 154.675 837.175L154.886 838.188C155.375 840.541 155.698 842.91 155.85 845.293L156.233 851.298C156.308 852.478 156.558 853.606 156.987 854.71L159.172 860.319C160.099 862.698 160.777 865.155 161.208 867.681L162.233 873.682C162.4 874.665 162.74 875.566 163.276 876.437L166.491 881.652C168 884.1 169.101 886.733 169.773 889.524L171.185 895.396C171.646 897.317 172.121 899.232 172.609 901.141L174.099 906.978C174.549 908.743 175.059 910.485 175.629 912.204L177.518 917.896C178.057 919.522 178.683 921.12 179.397 922.689L181.892 928.172C182.721 929.994 183.554 931.822 184.393 933.654L186.916 939.168C187.94 941.406 188.773 943.714 189.412 946.086L190.984 951.915C191.678 954.489 192.052 957.12 192.108 959.792L192.234 965.885C192.27 967.61 192.405 969.307 192.636 970.977L193.457 976.926C193.816 979.522 193.872 982.135 193.63 984.753L193.071 990.796C192.984 991.742 193.078 992.676 193.383 993.657L195.217 999.559C196.259 1002.91 196.399 1007.04 196.192 1011.25C196.029 1014.54 193.226 1017.08 189.931 1016.92L189.091 1016.88C188.757 1016.86 188.423 1016.87 188.091 1016.9L180.594 1017.64C180.241 1017.67 179.927 1017.41 179.892 1017.06C179.889 1017.03 179.889 1017 179.89 1016.97L180.211 1010.46C180.396 1006.71 180.119 1004.89 179.938 1004.31L178.104 998.406C177.186 995.452 176.855 992.404 177.14 989.322L177.698 983.279C177.829 981.868 177.797 980.484 177.608 979.115L176.786 973.167C176.469 970.872 176.287 968.555 176.238 966.219L176.111 960.125C176.082 958.735 175.89 957.392 175.536 956.08L173.964 950.25C173.556 948.736 173.024 947.262 172.366 945.825L169.844 940.311C169.001 938.469 168.162 936.63 167.328 934.798L164.834 929.315C163.885 927.23 163.051 925.102 162.331 922.933L160.443 917.241C159.754 915.165 159.139 913.063 158.596 910.936L157.106 905.099C156.6 903.117 156.107 901.129 155.628 899.136L154.216 893.264C153.946 892.142 153.505 891.077 152.871 890.049L149.656 884.834C148.05 882.228 146.976 879.391 146.461 876.374L145.691 871.864C145.689 871.851 145.675 871.844 145.663 871.849L145.597 871.881L144.677 872.307C143.714 872.754 142.186 873.339 140.403 873.992L134.927 875.999C132.398 876.926 129.772 877.488 127.074 877.697L121.113 878.159C118.758 878.341 116.398 878.36 114.036 878.217L108.05 877.853C105.932 877.725 103.817 877.547 101.704 877.321L95.7296 876.683C93.6812 876.465 91.6338 876.224 89.588 875.961L83.6202 875.193C81.8811 874.97 80.1382 874.829 78.3917 874.771L72.3927 874.573C70.6019 874.514 68.8055 874.524 67.0031 874.604L60.9757 874.875C58.7153 874.976 56.4582 874.971 54.2062 874.858L48.2111 874.557C46.2259 874.458 44.2395 874.363 42.2521 874.273L36.2501 874.002C33.652 873.884 31.088 873.478 28.5685 872.791L22.6954 871.188C21.8765 870.965 19.8387 870.706 16.0255 870.775L9.64758 870.89C9.37532 870.869 9.17221 870.63 9.19414 870.358L9.87805 861.869L9.86004 860.871C9.80041 857.566 12.4313 854.838 15.7364 854.778C19.9017 854.703 23.8111 854.908 26.9073 855.753L32.7804 857.355C34.1758 857.736 35.5703 857.955 36.9728 858.018L42.9747 858.29C44.988 858.381 47.0007 858.477 49.0118 858.578L55.006 858.878C56.7503 858.965 58.5012 858.969 60.2589 858.89L66.2863 858.621C68.5019 858.522 70.7145 858.509 72.923 858.582L78.922 858.78C81.1747 858.855 83.4211 859.036 85.6603 859.324L91.6281 860.092C93.5606 860.34 95.4943 860.567 97.4288 860.773L103.403 861.412C105.274 861.612 107.147 861.769 109.021 861.883L115.008 862.246C116.637 862.345 118.26 862.332 119.878 862.207L125.838 861.745C127.114 861.646 128.301 861.386 129.423 860.975L134.9 858.969C136.767 858.284 137.679 857.916 137.943 857.794L138.789 857.401C139.992 856.816 140.621 855.486 140.446 854.16C140.365 853.55 140.305 852.935 140.266 852.317L139.882 846.312C139.779 844.692 139.56 843.072 139.222 841.449L137.981 835.485C137.553 833.433 137.487 830.975 138.41 828.477C139.364 825.898 141.112 823.984 143.106 822.691L147.638 819.753C150.517 817.886 153.738 817.006 157.043 816.922L163.026 816.769C165.069 816.717 167.116 816.685 169.164 816.671L175.162 816.63C177.104 816.616 179.048 816.582 180.99 816.527L186.989 816.358C189.186 816.296 191.383 816.316 193.577 816.416L199.571 816.689C201.279 816.767 202.987 816.752 204.697 816.643L210.696 816.263C212.68 816.138 214.663 816.006 216.644 815.868L222.636 815.451C224.673 815.309 226.712 815.183 228.752 815.072L234.752 814.745C236.729 814.637 238.707 814.521 240.685 814.396L246.687 814.017C249.12 813.864 251.555 813.908 253.984 814.149L256.248 814.374C256.554 814.404 256.685 813.996 256.418 813.843C256.403 813.834 256.387 813.827 256.371 813.821L254.984 813.333C251.882 812.241 250.253 808.841 251.345 805.739C252.628 802.096 253.28 799.735 253.51 798.419L254.552 792.447C255.092 789.357 256.248 786.475 257.991 783.867L261.366 778.817C262.538 777.065 263.71 775.371 264.881 773.739L268.232 769.069C269.631 767.12 271.202 765.301 272.938 763.617L277.142 759.538C278.878 757.853 280.759 756.321 282.776 754.941L287.73 751.555C289.847 750.108 292.102 748.894 294.484 747.911L300.112 745.59C303.008 744.395 306.057 743.824 309.188 743.884L315.306 744C318.037 744.051 320.722 744.453 323.341 745.209L329.161 746.888C332.158 747.752 334.888 749.195 337.293 751.18L341.984 755.053C343.347 756.177 344.729 757.206 346.129 758.141L351.025 761.412C352.943 762.694 354.78 764.101 356.534 765.629L361.04 769.553C362.824 771.106 364.494 772.779 366.049 774.57L366.437 775.017C368.06 776.887 370.993 776.788 372.486 774.812C375.039 771.435 377.809 768.325 380.765 766.432L385.89 763.152C387.458 762.148 388.989 761.1 390.482 760.007L395.366 756.43C397.302 755.013 399.329 753.741 401.444 752.616L406.775 749.782C408.87 748.668 411.043 747.695 413.289 746.861L419.046 744.724C420.891 744.04 423.154 743.583 425.616 743.953C428.037 744.317 430.142 745.407 431.81 746.966L432.138 747.284L435.641 750.812C438.975 754.171 439.834 758.551 438.927 762.65L437.728 768.067C437.31 769.957 436.843 771.924 436.327 773.965L434.833 779.881C434.177 782.478 433.22 784.96 431.957 787.307L429.12 792.582C428.321 794.068 427.617 795.582 427.007 797.124L424.829 802.63C424.196 804.231 423.771 805.542 423.509 806.589L422.403 810.999C422.201 811.807 421.929 812.801 421.565 813.694C421.424 814.039 421.018 815.021 420.235 816.011C420.07 816.22 420.18 816.541 420.443 816.587C421.234 816.728 422.025 816.88 422.814 817.043L428.766 818.272C430.156 818.56 431.539 818.683 432.923 818.647L438.933 818.492C440.601 818.449 442.283 818.301 443.981 818.046L450.035 817.136C452.847 816.713 455.669 816.715 458.473 817.155L464.435 818.091C466.227 818.372 468.021 818.585 469.815 818.731L475.793 819.219C477.764 819.379 479.737 819.531 481.711 819.676L487.698 820.113C489.55 820.248 491.407 820.333 493.269 820.368L499.288 820.48C501.691 820.525 504.078 820.748 506.445 821.148L512.373 822.151C514.588 822.526 516.789 823.001 518.975 823.578L524.838 825.125C526.266 825.501 527.699 825.725 529.145 825.801L535.146 826.112C537.077 826.212 539.025 826.288 540.988 826.341L547.078 826.503C551.057 826.609 554.677 828.09 557.59 830.799L562.056 834.951C564.936 837.63 566.688 841.083 567.13 845.003L567.811 851.032C567.995 852.664 568.292 854.263 568.703 855.834L570.229 861.664C570.382 862.25 570.516 862.838 570.631 863.429C570.855 864.58 571.866 865.437 573.036 865.371C576.944 865.148 579.635 864.907 581.263 864.672L587.21 863.813C589.959 863.416 592.719 863.421 595.465 863.828L601.398 864.707C602.611 864.887 603.856 864.896 605.154 864.72L606.872 864.486C608.734 864.233 610.271 862.905 610.793 861.099C611.564 858.429 612.706 855.91 614.203 853.561L617.475 848.428C618.619 846.632 619.764 844.912 620.906 843.271L624.134 838.638C626.178 835.703 628.965 833.615 632.187 832.331L637.86 830.068C640.818 828.889 643.925 828.372 647.103 828.519L648.744 828.596C650.177 828.662 651.461 827.714 651.818 826.325C652.802 822.505 654.165 818.312 656.494 815.514L659.669 811.703L659.945 811.381C662.837 808.122 666.747 806.912 670.466 806.938L676.476 806.982C678.185 806.995 679.886 806.913 681.58 806.737L687.545 806.118C689.158 805.951 690.772 805.669 692.388 805.269L698.3 803.807C701.269 803.073 704.297 802.922 707.325 803.347L713.4 804.201C714.457 804.35 715.464 804.302 716.47 804.068L722.392 802.688C724.569 802.181 726.756 801.761 728.951 801.43L734.904 800.533C737.048 800.21 739.198 799.952 741.353 799.76L747.332 799.225C749.807 799.004 752.291 799.008 754.778 799.232L760.831 799.778C762.296 799.91 763.735 799.888 765.156 799.716L771.115 798.994C773.738 798.676 776.351 798.68 778.912 799.087L784.11 799.913C786.402 800.277 788.653 801.264 790.52 803.028C792.22 804.635 793.253 806.555 793.866 808.394L793.984 808.762L795.741 814.51C796.426 816.747 796.68 819.668 795.356 822.617C794.043 825.538 791.724 827.277 789.672 828.265L784.133 830.932C782.032 831.944 779.905 832.832 777.753 833.59L772.157 835.561C770.018 836.315 767.836 836.953 765.615 837.474L759.786 838.843C757.839 839.3 755.895 839.755 753.954 840.207L748.144 841.561C746.83 841.868 745.562 842.326 744.331 842.946L738.955 845.652C738.125 846.07 737.63 846.515 737.3 846.94L733.923 851.288C733.684 851.596 733.484 851.86 733.323 852.082C733.304 852.108 733.286 852.133 733.269 852.158C733.163 852.307 733.088 852.476 733.042 852.653L732.995 852.838C732.966 852.949 732.964 853.065 732.987 853.177L734.096 858.809C734.224 859.461 734.35 860.119 734.475 860.784C734.672 861.834 735.462 862.676 736.5 862.932L737.414 863.147C737.481 863.154 737.595 863.164 737.763 863.173C738.205 863.195 738.854 863.204 739.747 863.187L745.76 863.073C747.249 863.045 748.74 862.874 750.237 862.556L756.199 861.292C759.214 860.652 762.268 860.613 765.299 861.165L771.347 862.265C772.784 862.527 774.182 862.62 775.552 862.556L781.525 862.278C783.604 862.181 785.691 862.118 787.782 862.091L793.792 862.011C795.298 861.99 796.811 861.832 798.336 861.528L804.328 860.335C806.784 859.846 809.257 859.576 811.74 859.532L817.734 859.425C820.134 859.382 822.535 859.52 824.931 859.835L830.957 860.627C832.685 860.854 834.402 860.987 836.106 861.026L842.092 861.164C843.875 861.205 845.665 861.175 847.462 861.074L853.482 860.735C855.607 860.616 857.729 860.545 859.844 860.521L865.827 860.456C868.254 860.429 870.68 860.598 873.1 860.96L879.121 861.86C880.486 862.064 881.83 862.098 883.164 861.968L889.152 861.382C891.385 861.163 893.623 861.045 895.863 861.026L901.87 860.977C903.382 860.965 904.901 860.814 906.43 860.521L912.419 859.374C915.028 858.874 917.661 858.683 920.304 858.809L926.311 859.096C928.611 859.206 930.908 859.444 933.198 859.809L939.205 860.768C940.933 861.044 942.656 861.228 944.374 861.319L950.38 861.638C951.533 861.699 952.708 861.582 953.93 861.263L959.921 859.695C962.764 858.952 965.666 858.684 968.59 858.921L974.598 859.408C976.713 859.579 978.828 859.795 980.941 860.056L986.943 860.801C988.113 860.945 989.281 860.909 990.476 860.683L996.479 859.549C999.07 859.059 1001.68 858.867 1004.3 858.978L1010.3 859.234C1012.03 859.308 1013.77 859.297 1015.52 859.202L1021.54 858.875C1023.8 858.752 1026.06 858.738 1028.31 858.834L1034.29 859.089C1035.85 859.155 1037.42 859.095 1039.01 858.906L1045.03 858.187C1047.94 857.841 1050.84 857.989 1053.7 858.62L1059.69 859.939C1060.77 860.176 1061.81 860.215 1062.86 860.067L1068.87 859.22C1071.19 858.893 1073.52 858.706 1075.84 858.662L1081.84 858.548C1083.85 858.509 1085.86 858.475 1087.87 858.445L1093.87 858.355C1096.45 858.317 1099.02 858.56 1101.58 859.075L1107.6 860.29C1108.72 860.515 1109.78 860.54 1110.83 860.384L1116.79 859.498C1119.17 859.143 1121.57 858.97 1123.98 858.976L1130.03 858.992C1132.38 858.998 1134.73 859.154 1137.07 859.46L1143.07 860.245C1144.53 860.436 1145.98 860.477 1147.42 860.369L1153.39 859.924C1155.38 859.776 1157.37 859.624 1159.38 859.47L1165.42 859.003C1167.96 858.807 1170.5 858.863 1173.02 859.171L1179.02 859.902C1180.44 860.074 1181.83 860.087 1183.22 859.945L1189.17 859.335C1191.21 859.126 1193.26 858.937 1195.32 858.768L1201.35 858.276C1203.5 858.101 1205.64 857.98 1207.78 857.912L1213.81 857.721C1216.12 857.648 1218.42 857.705 1220.72 857.89L1226.74 858.375C1228.5 858.517 1230.25 858.577 1232.01 858.555L1238.01 858.483C1240.36 858.455 1242.7 858.576 1245.03 858.846L1251.03 859.542C1252.07 859.662 1253.09 859.599 1254.16 859.336L1260.1 857.869C1262.78 857.209 1265.5 856.915 1268.25 856.994L1274.31 857.169C1275.38 857.2 1275.91 857.024 1276.13 856.93C1278.2 856.004 1279.73 854.178 1280.28 851.976L1280.66 850.453C1280.97 849.242 1281.09 848.02 1281.04 846.764L1280.8 840.717C1280.69 838.134 1280.86 835.566 1281.31 833.024L1282.35 827.092C1282.61 825.572 1282.74 824.045 1282.74 822.505L1282.74 816.485C1282.73 814.21 1282.85 811.941 1283.07 809.681L1283.67 803.71C1283.88 801.685 1284.09 799.661 1284.32 797.639L1285 791.679C1285.22 789.708 1285.44 787.734 1285.66 785.758L1286.3 779.78C1286.5 777.928 1286.65 776.074 1286.75 774.219L1287.07 768.228C1287.2 765.943 1287.45 763.667 1287.82 761.402L1288.79 755.46C1289.08 753.716 1289.28 751.968 1289.41 750.217L1289.84 744.237C1289.97 742.531 1290 740.816 1289.94 739.091L1289.73 733.062C1289.63 730.265 1289.94 727.496 1290.66 724.783L1292.21 718.871C1292.61 717.348 1292.86 715.833 1292.98 714.322L1293.46 708.35C1293.59 706.687 1293.63 705.008 1293.55 703.312L1293.3 697.264C1293.2 694.91 1293.26 692.564 1293.46 690.23L1293.98 684.264C1294.15 682.276 1294.33 680.284 1294.5 678.29L1295.02 672.309C1295.21 670.16 1295.46 668.013 1295.78 665.869L1296.65 659.895C1296.83 658.693 1296.83 657.479 1296.64 656.229L1295.73 650.18C1295.27 647.083 1295.44 643.987 1296.24 640.96L1297.81 635.032C1298.12 633.877 1298.22 632.748 1298.15 631.615L1297.76 625.592C1297.62 623.399 1297.56 621.207 1297.57 619.018L1297.6 613.013C1297.62 610.851 1297.69 608.689 1297.84 606.531L1298.23 600.539C1298.37 598.533 1298.5 596.527 1298.64 594.52L1299.06 588.526C1299.2 586.482 1299.36 584.439 1299.54 582.395L1300.06 576.403C1300.22 574.608 1300.3 572.81 1300.32 571.013L1300.39 565.009C1300.41 563.334 1300.32 561.655 1300.13 559.97L1299.46 553.954C1299.24 551.924 1299.02 549.895 1298.81 547.868L1298.2 541.86C1297.91 538.991 1298.08 536.13 1298.71 533.311L1300.05 527.329C1300.35 525.953 1300.49 524.603 1300.46 523.263L1300.32 517.263C1300.28 515.637 1300.13 514.004 1299.86 512.364L1298.89 506.362C1298.44 503.649 1298.37 500.918 1298.68 498.19L1299.34 492.191C1299.5 490.773 1299.51 489.36 1299.35 487.943L1298.7 481.945C1298.39 479.072 1298.55 476.204 1299.17 473.375L1300.47 467.366C1300.8 465.88 1300.96 464.418 1300.98 462.971L1301.05 456.966C1301.07 455.122 1301.03 453.279 1300.95 451.436L1300.66 445.433C1300.57 443.7 1300.4 441.964 1300.15 440.227L1299.26 434.235C1298.92 431.99 1298.7 429.739 1298.58 427.486L1298.27 421.493C1298.17 419.504 1298.06 417.515 1297.95 415.526L1297.62 409.534C1297.48 407.09 1297.55 404.644 1297.82 402.202L1298.49 396.186C1298.66 394.639 1298.7 393.102 1298.6 391.571L1298.22 385.577C1298.07 383.169 1298.1 380.757 1298.32 378.347L1298.87 372.331C1299.03 370.527 1299.12 368.725 1299.15 366.928L1299.23 360.922C1299.25 359.615 1299.1 358.299 1298.77 356.959L1297.3 350.999C1296.54 347.907 1296.45 344.757 1297.04 341.627L1298.16 335.588C1298.33 334.669 1298.31 333.798 1298.09 332.901L1296.68 326.942C1296.01 324.147 1295.79 321.304 1296.03 318.445L1296.52 312.422C1296.67 310.634 1296.74 308.85 1296.74 307.071L1296.73 301.065C1296.73 299.505 1296.6 297.948 1296.34 296.388L1295.34 290.422C1294.95 288.052 1294.73 285.669 1294.68 283.277L1294.56 277.279C1294.53 275.449 1294.44 273.621 1294.28 271.797L1293.79 265.816C1293.63 263.891 1293.44 261.966 1293.23 260.042L1292.58 254.066C1292.34 251.858 1292.19 249.643 1292.13 247.424L1291.97 241.423C1291.92 239.435 1291.86 237.446 1291.8 235.459L1291.61 229.459C1291.55 227.51 1291.47 225.562 1291.37 223.616L1291.07 217.622C1290.94 215.214 1291.01 212.802 1291.25 210.389L1291.87 204.348C1292.02 202.798 1292.04 201.264 1291.93 199.744L1291.48 193.758C1291.34 191.843 1291.16 189.929 1290.96 188.017L1290.33 182.042C1290.1 179.921 1289.93 177.796 1289.81 175.669L1289.47 169.679C1289.33 167.261 1289.39 164.837 1289.63 162.413L1290.24 156.367C1290.38 154.885 1290.38 153.427 1290.23 151.984L1289.61 146.014C1289.46 144.55 1289.16 143.079 1288.71 141.596L1286.91 135.705C1286.06 132.926 1285.66 130.07 1285.75 127.171L1285.92 121.129C1285.98 119.251 1285.98 117.378 1285.94 115.512L1285.8 109.498C1285.76 107.482 1285.72 105.469 1285.68 103.461L1285.57 97.4715C1285.55 95.9755 1285.38 94.4785 1285.07 92.9754L1283.85 87.033C1283.3 84.3855 1283.1 81.7043 1283.25 79.0076L1283.57 72.9734C1283.65 71.2969 1283.64 69.6318 1283.51 67.9773L1283.07 61.9959C1282.96 60.446 1282.72 58.9006 1282.34 57.3572L1280.91 51.4598C1280.31 49.0265 1279.95 46.5613 1279.81 44.0711L1279.47 38.0691C1279.38 36.5041 1279.16 34.9535 1278.82 33.4148L1277.51 27.5291C1277.16 25.982 1276.7 24.4923 1276.12 23.0564L1274.8 19.7523C1274.27 18.4316 1273.26 17.3608 1271.97 16.7563L1270.59 16.1054C1270.46 16.0474 1270.33 16.0266 1270.19 16.0584L1264.35 17.4607C1261.8 18.0727 1259.2 18.384 1256.57 18.3992L1250.49 18.4344C1249.05 18.4427 1247.64 18.6054 1246.26 18.9197L1240.4 20.2566C1237.95 20.8155 1235.46 21.1362 1232.95 21.2185L1226.94 21.4148C1225.42 21.4645 1223.92 21.6519 1222.42 21.9773L1216.52 23.2605C1213.97 23.8149 1211.39 24.0814 1208.78 24.0564L1202.76 23.9978C1201.21 23.983 1199.67 24.1005 1198.13 24.3504L1192.18 25.3201C1189.81 25.7053 1187.43 25.917 1185.03 25.9559L1179.01 26.0535C1177.1 26.0845 1175.2 26.1507 1173.31 26.2518L1167.35 26.5711C1164.64 26.716 1161.94 26.4979 1159.26 25.9383L1153.19 24.6678C1152.34 24.4912 1151.58 24.5128 1150.8 24.7117L1144.86 26.2293C1142.04 26.9511 1139.16 27.2022 1136.26 26.9646L1130.26 26.4734C1128.47 26.3266 1126.68 26.2499 1124.89 26.2439L1118.89 26.2244C1117.4 26.2195 1115.91 26.355 1114.4 26.6365L1108.42 27.7547C1105.71 28.2616 1102.97 28.3928 1100.23 28.1434L1094.21 27.5965C1092.22 27.4153 1090.23 27.238 1088.23 27.0662L1082.21 26.5477C1080.75 26.422 1079.29 26.447 1077.83 26.6228L1071.81 27.3465C1069.31 27.6465 1066.82 27.7138 1064.32 27.5447L1058.35 27.1404C1056.52 27.0164 1054.69 26.9471 1052.86 26.9334L1046.88 26.8885C1044.95 26.874 1043.02 26.8828 1041.08 26.9148L1035.06 27.0144C1033.19 27.0455 1031.31 27.1224 1029.43 27.2439L1023.4 27.6326C1021.18 27.7759 1018.97 27.8308 1016.77 27.7967L1010.81 27.7049C1009.1 27.6783 1007.37 27.7368 1005.62 27.8826L999.609 28.3855C996.977 28.6057 994.344 28.5148 991.725 28.118L985.698 27.2049C984.205 26.9786 982.738 26.9044 981.29 26.9754L975.321 27.2684C973.196 27.3726 971.058 27.4232 968.91 27.4197L962.866 27.41C961.076 27.4071 959.302 27.479 957.544 27.6258L951.585 28.1238C949.219 28.3214 946.843 28.349 944.462 28.2098L938.441 27.8582C937.028 27.7756 935.619 27.8489 934.204 28.0818L928.219 29.0682C925.847 29.4588 923.464 29.6772 921.074 29.7215L915.073 29.8328C912.873 29.8735 910.671 29.831 908.469 29.7068L902.457 29.368C900.289 29.2457 898.124 29.0566 895.963 28.8006L889.966 28.0906C888.414 27.9068 886.863 27.8551 885.311 27.9344L879.298 28.241C877.685 28.3234 876.07 28.5242 874.451 28.8455L868.472 30.032C865.608 30.6005 862.711 30.6879 859.819 30.2889L853.799 29.4578C852.216 29.2394 850.649 29.1512 849.094 29.1912L843.107 29.3455C841.02 29.3992 838.929 29.4173 836.835 29.4002L830.822 29.3514C828.805 29.3349 826.79 29.3135 824.779 29.2869L818.787 29.2068C817.377 29.1882 815.95 29.3231 814.5 29.6199L808.499 30.8484C805.809 31.3991 803.089 31.589 800.359 31.406L794.36 31.0037C792.079 30.8507 789.8 30.5763 787.526 30.1824L781.518 29.1414C780.014 28.881 778.527 28.7699 777.05 28.8016L771.048 28.9295C768.912 28.9753 766.777 28.9676 764.642 28.9051L758.643 28.7293C757.048 28.6825 755.449 28.7563 753.844 28.9519L747.841 29.6834C745.646 29.951 743.45 30.1374 741.254 30.242L735.261 30.5271C732.804 30.6441 730.346 30.5501 727.895 30.2469L721.881 29.5027C720.131 29.2863 718.387 29.1555 716.651 29.1102L710.657 28.9539C708.775 28.9047 706.889 28.8964 705 28.9285L698.989 29.0301C697.071 29.0627 695.155 29.126 693.243 29.2195L687.252 29.5125C684.978 29.6237 682.701 29.6167 680.424 29.492L674.417 29.1629C672.796 29.0741 671.177 29.1018 669.558 29.2449L663.562 29.7742C661.609 29.9468 659.655 30.1369 657.7 30.3435L651.701 30.9783C649.239 31.2388 646.77 31.2831 644.302 31.1111L638.298 30.6922C636.452 30.5635 634.607 30.4891 632.764 30.4685L626.763 30.4021C624.524 30.3772 622.285 30.2511 620.049 30.0262L614.045 29.4227C612.349 29.2521 610.656 29.1798 608.966 29.2059L602.965 29.2986C601.177 29.3262 599.389 29.4254 597.6 29.5955L591.602 30.1658C589.113 30.4024 586.619 30.4087 584.128 30.1853L578.122 29.6463C576.66 29.5151 575.202 29.5328 573.743 29.699L567.752 30.3826C565.739 30.6121 563.723 30.8358 561.704 31.0535L555.695 31.701C553.564 31.9309 551.434 32.1086 549.307 32.2332L543.318 32.5838C540.922 32.724 538.523 32.6849 536.125 32.4676L530.11 31.9217C527.904 31.7216 525.701 31.438 523.506 31.0701L517.512 30.0652C515.951 29.8037 514.397 29.6765 512.847 29.6795L506.835 29.6912C504.986 29.6948 503.14 29.7516 501.297 29.8621L495.305 30.2215C493.505 30.3295 491.699 30.5052 489.89 30.7478L483.883 31.5525C481.017 31.9368 478.146 31.8522 475.305 31.3055L469.305 30.1502C468.276 29.9523 467.275 29.948 466.25 30.1346L460.248 31.2283C457.978 31.6419 455.701 31.9359 453.42 32.1092L447.42 32.5652C444.893 32.7572 442.364 32.6984 439.843 32.3904L433.841 31.657C432.185 31.4547 430.533 31.3612 428.884 31.3768L422.88 31.4334C420.658 31.4543 418.436 31.3837 416.217 31.2205L410.217 30.7791C408.44 30.6484 406.663 30.5923 404.887 30.6111L398.883 30.6746C396.991 30.6947 395.099 30.7542 393.207 30.8514L387.206 31.159C385.456 31.2489 383.702 31.4207 381.945 31.6756L375.946 32.5467C373.012 32.9724 370.07 32.8756 367.165 32.2713L361.156 31.0213C359.549 30.6868 357.958 30.4826 356.384 30.4031L350.394 30.1004C348.897 30.0249 347.389 30.0884 345.866 30.2947L339.849 31.1102C337.647 31.4085 335.448 31.6236 333.255 31.7537L327.286 32.1072C324.643 32.264 322.001 32.0972 319.377 31.6199L313.338 30.5213C312.149 30.3051 311.008 30.2849 309.884 30.4432L303.922 31.283C301.493 31.625 299.048 31.7622 296.593 31.6961L290.558 31.534C288.821 31.4872 287.091 31.5298 285.368 31.6619L279.37 32.1219C276.803 32.3188 274.238 32.2424 271.686 31.8924L265.714 31.073C264.322 30.8822 262.921 30.8483 261.501 30.9744L255.459 31.5115C253.457 31.6894 251.464 31.871 249.482 32.0564L243.497 32.616C240.997 32.8498 238.495 32.8454 235.998 32.6014L230.032 32.0184C227.908 31.8107 225.774 31.547 223.631 31.2283L217.591 30.3299C216.318 30.1406 215.068 30.1333 213.818 30.3025L207.812 31.116C205.194 31.4707 202.567 31.5189 199.944 31.2566L193.958 30.658C192.694 30.5316 191.43 30.5775 190.148 30.8016L184.167 31.8465C181.364 32.3361 178.539 32.3901 175.722 32.0037L169.739 31.1824C168.478 31.0094 167.221 31.0117 165.95 31.1902L159.953 32.033C157.654 32.3562 155.347 32.5467 153.035 32.6043L147.026 32.7537C144.756 32.8102 142.485 32.7534 140.215 32.5838L134.196 32.1346C132.201 31.9855 130.207 31.8399 128.214 31.699L122.203 31.2742C120.073 31.1236 117.949 30.9227 115.833 30.6707L109.866 29.9598C108.387 29.7835 106.899 29.749 105.397 29.8582L99.3712 30.2967C97.1001 30.4618 94.8305 30.5141 92.5656 30.4529L86.5724 30.2908C85.0983 30.251 83.6152 30.3539 82.1173 30.6053L76.1193 31.6131C73.3007 32.0862 70.4625 32.1167 67.6378 31.698L61.67 30.8133C60.1525 30.5883 58.6339 30.5006 57.1105 30.5496L51.0997 30.743C48.6797 30.8208 45.3746 30.6931 41.3595 30.4168C38.0853 30.1919 35.6155 27.3257 35.8409 24.0516L36.0305 14.324C36.0337 14.1601 36.1692 14.0298 36.3331 14.033L42.4581 14.4549C46.347 14.7225 48.9984 14.8028 50.5851 14.7518L56.5958 14.5584C59.079 14.4785 61.5547 14.6213 64.0157 14.9861L69.9835 15.8709C71.1374 16.0419 72.2898 16.0318 73.4698 15.8338L79.4689 14.826C81.9695 14.4063 84.4844 14.2286 87.005 14.2967L92.9972 14.4588C94.7271 14.5055 96.4656 14.4656 98.2111 14.3387L104.236 13.9002C106.751 13.7175 109.261 13.7746 111.759 14.0721L117.726 14.783C119.587 15.0047 121.456 15.1816 123.332 15.3143L129.343 15.7391C131.357 15.8815 133.372 16.0278 135.389 16.1785L141.407 16.6287C143.15 16.7589 144.89 16.8018 146.627 16.7586L152.638 16.6092C154.333 16.5669 156.029 16.4269 157.727 16.1883L163.724 15.3455C166.45 14.9625 169.187 14.957 171.913 15.3309L177.896 16.1521C179.066 16.3127 180.23 16.2916 181.414 16.0848L187.395 15.0398C190.099 14.5676 192.825 14.4644 195.551 14.7371L201.536 15.3367C202.904 15.4735 204.276 15.4494 205.663 15.2615L211.67 14.4471C214.425 14.0738 217.191 14.0943 219.944 14.5037L225.984 15.4021C227.868 15.6822 229.736 15.9124 231.589 16.0935L237.555 16.6775C239.035 16.8223 240.518 16.8256 242.007 16.6863L247.992 16.1258C249.999 15.9381 252.016 15.7541 254.042 15.574L260.085 15.0379C262.693 14.8061 265.299 14.8664 267.888 15.2215L273.859 16.0398C275.288 16.2358 276.715 16.2786 278.147 16.1687L284.145 15.7088C286.42 15.5343 288.702 15.4782 290.988 15.5398L297.024 15.7019C298.591 15.7442 300.146 15.6568 301.692 15.4393L307.653 14.5994C310.503 14.1982 313.363 14.2642 316.2 14.7801L322.24 15.8787C323.642 16.1335 325.004 16.2147 326.339 16.1355L332.308 15.782C334.093 15.6762 335.891 15.5008 337.7 15.2557L343.718 14.4402C346.207 14.103 348.703 13.995 351.199 14.1209L357.19 14.4227C359.608 14.5447 362.018 14.8584 364.415 15.3572L370.424 16.6072C371.524 16.8361 372.586 16.866 373.65 16.7117L379.649 15.8416C381.891 15.5163 384.137 15.296 386.386 15.1805L392.386 14.8719C394.494 14.7636 396.603 14.698 398.713 14.6756L404.717 14.6121C406.942 14.5885 409.167 14.6586 411.39 14.8221L417.39 15.2635C419.17 15.3944 420.95 15.4512 422.73 15.4344L428.733 15.3777C431.085 15.3556 433.436 15.4877 435.781 15.7742L441.783 16.5076C443.264 16.6884 444.736 16.7229 446.208 16.6111L452.208 16.1551C453.926 16.0245 455.651 15.8023 457.381 15.4871L463.383 14.3934C466.359 13.8513 469.359 13.8676 472.329 14.4393L478.328 15.5935C479.486 15.8163 480.618 15.8477 481.756 15.6951L487.763 14.8894C489.957 14.5952 492.151 14.3815 494.346 14.2498L500.339 13.8904C502.491 13.7613 504.647 13.6954 506.805 13.6912L512.817 13.6795C515.273 13.6748 517.722 13.8779 520.156 14.2859L526.151 15.2898C527.95 15.5914 529.752 15.8237 531.555 15.9871L537.57 16.533C539.182 16.6791 540.785 16.7046 542.382 16.6111L548.371 16.2605C550.236 16.1513 552.106 15.9959 553.98 15.7937L559.988 15.1453C561.975 14.931 563.959 14.7109 565.94 14.4852L571.932 13.8025C574.467 13.5136 577.01 13.4828 579.551 13.7107L585.558 14.2488C587.07 14.3845 588.579 14.3806 590.088 14.2371L596.085 13.6668C598.294 13.4568 600.505 13.3347 602.718 13.3006L608.719 13.2078C611.029 13.1722 613.339 13.2707 615.646 13.5027L621.651 14.1072C623.417 14.2848 625.181 14.3835 626.942 14.4031L632.942 14.4695C635.098 14.4936 637.255 14.5809 639.411 14.7312L645.414 15.1502C646.948 15.2571 648.481 15.2297 650.018 15.0672L656.018 14.4324C658.063 14.2161 660.108 14.0174 662.152 13.8367L668.149 13.3064C670.527 13.0963 672.909 13.0568 675.292 13.1873L681.299 13.5164C683.026 13.611 684.75 13.6162 686.471 13.532L692.462 13.2391C694.544 13.1372 696.63 13.0685 698.718 13.033L704.729 12.9305C706.846 12.8945 708.963 12.9046 711.075 12.9598L717.068 13.116C719.327 13.175 721.588 13.3445 723.846 13.6238L729.859 14.368C731.415 14.5605 732.961 14.6189 734.499 14.5457L740.493 14.2605C742.293 14.1748 744.097 14.0219 745.904 13.8016L751.907 13.0691C754.304 12.777 756.707 12.6657 759.111 12.7361L765.11 12.9119C766.975 12.9665 768.84 12.9734 770.705 12.9334L776.706 12.8045C779.23 12.7503 781.747 12.9432 784.249 13.3768L790.258 14.4178C791.989 14.7177 793.714 14.9247 795.431 15.0398L801.43 15.4422C802.7 15.5273 803.981 15.4418 805.291 15.1736L811.292 13.9451C813.842 13.4232 816.415 13.1746 818.999 13.2088L824.991 13.2879C826.975 13.3141 828.963 13.3351 830.953 13.3514L836.966 13.4012C838.88 13.4168 840.791 13.3994 842.695 13.3504L848.683 13.1971C851.119 13.1344 853.556 13.2727 855.986 13.6082L862.007 14.4383C863.129 14.5931 864.234 14.5615 865.357 14.3387L871.336 13.1521C873.703 12.6822 876.087 12.3839 878.482 12.2615L884.494 11.9549C886.95 11.8295 889.404 11.9123 891.849 12.2019L897.845 12.9119C899.681 13.1294 901.519 13.2896 903.359 13.3934L909.37 13.7322C911.175 13.834 912.978 13.869 914.777 13.8357L920.777 13.7244C922.387 13.6946 924 13.5475 925.618 13.281L931.604 12.2947C934.179 11.8705 936.773 11.7334 939.374 11.8855L945.396 12.2371C947.028 12.3326 948.647 12.3126 950.253 12.1785L956.213 11.6814C958.427 11.4966 960.654 11.4063 962.893 11.41L968.937 11.4197C970.818 11.4228 972.685 11.3788 974.538 11.2879L980.507 10.9949C983.038 10.8708 985.571 11.0031 988.095 11.3855L994.122 12.2986C995.52 12.5104 996.901 12.5562 998.276 12.4412L1004.29 11.9383C1006.55 11.749 1008.81 11.6719 1011.06 11.7068L1017.01 11.7986C1018.78 11.826 1020.57 11.782 1022.37 11.6658L1028.39 11.2771C1030.53 11.1392 1032.67 11.0517 1034.8 11.0164L1040.81 10.9178C1042.88 10.8836 1044.94 10.874 1047 10.8894L1052.98 10.9344C1055.13 10.9505 1057.29 11.0309 1059.43 11.1766L1065.4 11.5809C1066.89 11.6814 1068.38 11.6431 1069.9 11.4607L1075.92 10.7371C1078.47 10.4306 1081.03 10.3861 1083.58 10.6062L1089.61 11.1258C1091.63 11.2998 1093.65 11.4784 1095.67 11.6619L1101.68 12.2088C1102.95 12.324 1104.21 12.2653 1105.48 12.0271L1111.46 10.909C1113.94 10.4454 1116.44 10.2161 1118.94 10.2244L1124.94 10.2439C1127.15 10.2513 1129.36 10.3453 1131.57 10.5262L1137.57 11.0184C1138.67 11.1084 1139.77 11.0183 1140.9 10.7283L1146.84 9.20976C1150.02 8.39721 1153.26 8.33651 1156.46 9.00663L1162.54 10.2771C1163.91 10.5641 1165.22 10.6624 1166.49 10.5945L1172.46 10.2752C1174.54 10.1634 1176.64 10.0896 1178.75 10.0555L1184.77 9.95781C1186.4 9.93149 1188.01 9.78809 1189.61 9.52714L1195.56 8.55839C1198 8.16223 1200.45 7.97518 1202.92 7.99882L1208.94 8.05644C1210.34 8.06991 1211.74 7.92712 1213.12 7.62578L1219.02 6.34257C1221.46 5.81236 1223.93 5.50509 1226.42 5.42363L1232.42 5.22734C1233.92 5.17846 1235.39 4.98876 1236.84 4.65703L1242.7 3.32011C1245.23 2.74382 1247.8 2.44934 1250.4 2.43437L1256.48 2.40019C1257.9 2.39199 1259.27 2.22472 1260.62 1.90214L1266.46 0.499799ZM593.119 879.655C591.911 879.476 590.712 879.474 589.496 879.649L583.55 880.508C581.214 880.845 577.961 881.116 573.946 881.345C573.181 881.388 572.678 882.164 572.951 882.88L573.59 884.558C574.665 887.382 575.205 890.329 575.192 893.35L575.165 899.435C575.159 900.738 575.328 901.995 575.667 903.224L577.275 909.045C577.749 910.762 578.296 912.456 578.917 914.125L581.023 919.783C581.865 922.046 582.531 924.358 583.021 926.716L583.161 927.395C583.421 928.648 585.145 928.811 585.636 927.629C586.213 926.236 586.666 924.781 586.992 923.258L588.272 917.288C588.874 914.477 589.902 911.814 591.349 909.333L594.399 904.103C595.3 902.557 596.13 900.982 596.888 899.38L599.459 893.944C600.241 892.291 600.968 890.615 601.639 888.916L603.845 883.33C604.316 882.137 603.378 880.875 602.096 880.822C601.08 880.78 600.064 880.684 599.052 880.534L593.119 879.655ZM776.401 814.888C775.497 814.745 774.391 814.714 773.041 814.878L767.081 815.599C764.53 815.909 761.964 815.946 759.394 815.714L753.341 815.168C751.794 815.028 750.267 815.027 748.756 815.162L742.776 815.696C740.944 815.86 739.115 816.079 737.29 816.354L731.337 817.252C729.564 817.519 727.792 817.859 726.022 818.271L720.1 819.651C717.158 820.336 714.165 820.465 711.174 820.045L705.1 819.192C704.079 819.049 703.111 819.1 702.14 819.34L696.229 820.802C693.904 821.376 691.558 821.788 689.195 822.033L683.231 822.651C680.949 822.888 678.658 822.998 676.36 822.981L674.026 822.964C672.192 822.951 670.449 823.76 669.275 825.17C669.02 825.476 668.793 825.805 668.635 826.17C668.596 826.261 668.553 826.364 668.507 826.48C668.383 826.791 668.618 827.122 668.952 827.127C669.861 827.141 670.77 827.197 671.679 827.296L677.657 827.943C679.86 828.182 682.048 828.508 684.223 828.92L690.122 830.037C692.712 830.528 695.217 831.319 697.627 832.403L703.152 834.888C704.648 835.561 706.158 836.113 707.685 836.548L713.403 838.177C715.774 838.852 718.061 839.734 720.257 840.824C720.901 841.143 721.68 840.965 722.121 840.398L724.663 837.126C726.584 834.652 729.008 832.746 731.762 831.36L737.138 828.654C739.491 827.47 741.953 826.575 744.512 825.978L750.322 824.625C752.255 824.174 754.19 823.722 756.129 823.266L761.958 821.897C763.623 821.507 765.25 821.031 766.84 820.471L772.436 818.499C774.014 817.943 775.599 817.284 777.191 816.517L779.228 815.535C779.275 815.512 779.299 815.457 779.284 815.407C779.271 815.367 779.238 815.339 779.198 815.332L779.001 815.302L776.401 814.888ZM25.7452 34.1922C26.3576 38.2661 26.6983 41.9479 26.4982 44.8523L26.0851 50.8533C25.9691 52.5364 25.954 54.217 26.0392 55.8963L26.3429 61.8914C26.4773 64.5403 26.2892 67.1815 25.7892 69.8006L24.6417 75.8113C24.4063 77.0447 24.3601 78.2455 24.4913 79.4393L25.1495 85.4324C25.4128 87.8284 25.4959 90.2293 25.3956 92.6307L25.1456 98.6189C25.0554 100.78 24.8973 102.946 24.673 105.114L24.0499 111.137C23.9408 112.191 24.0149 113.249 24.2941 114.35L25.8107 120.334C26.5801 123.369 26.7282 126.468 26.2277 129.562L25.2599 135.55C25.0479 136.86 25.0089 138.159 25.1407 139.464L25.7482 145.47C25.9829 147.79 26.0778 150.114 26.0314 152.439L25.9113 158.444C25.8758 160.218 25.9162 161.993 26.0323 163.767L26.4249 169.771C26.6141 172.662 26.323 175.53 25.5802 178.339L23.9952 184.331C23.7054 185.427 23.628 186.462 23.7306 187.481L24.3351 193.482C24.5381 195.498 24.7349 197.515 24.9259 199.532L25.4943 205.535C25.7598 208.34 25.6014 211.138 25.0314 213.904L23.795 219.902C23.6233 220.735 23.6335 221.546 23.8439 222.419L25.295 228.434C25.9864 231.301 26.1925 234.219 25.8888 237.148L25.2657 243.159C25.1171 244.594 25.1227 246.021 25.2823 247.449L25.9523 253.445C26.2374 255.996 26.2555 258.553 26.006 261.105L25.421 267.095C25.2616 268.727 25.2144 270.357 25.2804 271.99L25.5236 277.993C25.6045 279.997 25.6841 282.002 25.7628 284.009L25.9991 290.018C26.0923 292.391 26.0205 294.762 25.7853 297.129L25.1886 303.131C25.0234 304.794 24.965 306.452 25.0128 308.106L25.1866 314.1C25.2563 316.508 25.141 318.914 24.8429 321.313L24.0978 327.31C23.9468 328.526 23.9738 329.741 24.1857 330.981L25.213 336.993C25.7 339.844 25.7242 342.715 25.2804 345.572L24.3488 351.568C24.1107 353.101 24.0118 354.624 24.049 356.141L24.1954 362.14C24.2397 363.95 24.3492 365.763 24.5226 367.578L25.0958 373.585C25.3086 375.812 25.4266 378.041 25.4484 380.271L25.507 386.275C25.5302 388.664 25.3791 391.049 25.0568 393.427L24.2443 399.422C24.002 401.208 23.8329 402.993 23.7365 404.776L23.4122 410.777C23.3059 412.743 23.2113 414.71 23.13 416.676L22.882 422.675C22.8279 423.982 22.9404 425.307 23.2325 426.663L24.5265 432.67C25.141 435.523 25.2834 438.415 24.9366 441.309L24.2179 447.31C24.0367 448.823 23.9961 450.331 24.0948 451.84L24.4874 457.845C24.6604 460.486 24.5169 463.122 24.0616 465.737L23.0187 471.725C22.8335 472.789 22.8369 473.84 23.0333 474.921L24.1261 480.929C24.644 483.778 24.6979 486.651 24.2823 489.514L23.4113 495.517C23.2084 496.916 23.1676 498.303 23.2863 499.691L23.7999 505.698C23.9837 507.849 24.1069 509.999 24.1691 512.148L24.3429 518.144C24.403 520.22 24.4327 522.296 24.4327 524.371V530.365C24.4328 532.451 24.3986 534.54 24.3302 536.631L24.1329 542.642C24.0618 544.816 23.9217 546.988 23.712 549.157L23.132 555.16C22.968 556.856 22.9019 558.55 22.9337 560.242L23.047 566.244C23.0932 568.698 22.9318 571.146 22.5646 573.582L21.6613 579.568C21.4796 580.773 21.4792 581.969 21.6613 583.181L22.5626 589.18C22.9514 591.769 23.0493 594.369 22.8507 596.971L22.3937 602.955C22.279 604.457 22.3028 605.966 22.4669 607.487L23.1154 613.5C23.4069 616.202 23.342 618.906 22.923 621.594L21.9884 627.586C21.7483 629.126 21.6462 630.656 21.6779 632.181L21.8019 638.178C21.8483 640.414 21.7961 642.652 21.6437 644.888L21.2345 650.892C21.1343 652.363 21.179 653.841 21.3732 655.333L22.1583 661.361C22.5132 664.088 22.4955 666.823 22.1046 669.543L21.2433 675.536C20.9768 677.39 20.7634 679.237 20.6017 681.077L20.0773 687.04C19.918 688.852 19.8178 690.674 19.7775 692.508L19.6456 698.531C19.6074 700.269 19.6569 702.003 19.7941 703.733L20.2697 709.73C20.4235 711.67 20.5993 713.612 20.797 715.557L21.4083 721.569C21.6662 724.107 21.6673 726.647 21.4122 729.182L20.8097 735.179C20.6566 736.7 20.6397 738.223 20.7609 739.751L21.2384 745.766C21.4194 748.05 21.4801 750.334 21.42 752.616L21.2618 758.616C21.1945 761.176 20.8606 763.714 20.2657 766.22L18.8575 772.151C18.4754 773.761 18.2136 775.366 18.0704 776.968L17.5372 782.939C17.3688 784.824 17.238 786.713 17.1447 788.606L16.8488 794.605C16.7641 796.323 16.7697 798.046 16.8663 799.773L17.2032 805.793C17.3337 808.123 17.3225 810.452 17.1681 812.775L16.7697 818.765C16.6593 820.426 16.6537 822.087 16.7531 823.75L17.1115 829.745C17.18 830.892 17.2099 832.008 17.172 833.032C17.1386 833.935 17.0404 835.284 16.6173 836.65L16.2882 837.713L16.2736 837.759L16.2589 837.804C15.8976 838.923 14.6974 839.537 13.5783 839.175L8.70053 837.599C8.46967 837.525 8.2298 837.482 7.98743 837.471L0.094871 837.124C0.0399265 837.122 -0.00257151 837.075 0.000121217 837.02C0.0312292 836.304 0.15874 835.596 0.379209 834.913L1.00598 832.974C1.12393 832.593 1.19262 832.197 1.18525 831.797C1.17983 831.504 1.16612 831.141 1.13977 830.7L0.781371 824.705C0.641893 822.371 0.649782 820.036 0.804809 817.704L1.20325 811.714C1.31422 810.044 1.32276 808.369 1.22864 806.687L0.891723 800.668C0.763801 798.383 0.755915 796.099 0.868285 793.818L1.16321 787.819C1.26696 785.714 1.41328 783.612 1.60071 781.515L2.13391 775.543C2.34662 773.163 2.73359 770.799 3.29016 768.455L4.69836 762.523C5.04223 761.075 5.22982 759.635 5.2677 758.195L5.42493 752.195C5.47009 750.478 5.42502 748.757 5.28821 747.031L4.81164 741.015C4.61493 738.534 4.64068 736.052 4.88977 733.577L5.49329 727.581C5.64039 726.119 5.63972 724.657 5.49036 723.187L4.87903 717.176C4.66942 715.114 4.4827 713.053 4.31946 710.995L3.84387 704.998C3.66397 702.73 3.59951 700.456 3.64954 698.18L3.78137 692.156C3.82932 689.974 3.9486 687.802 4.13879 685.638L4.66321 679.676C4.85096 677.54 5.09865 675.402 5.40637 673.261L6.2677 667.266C6.45099 665.991 6.46017 664.717 6.29211 663.426L5.50696 657.397C5.17818 654.871 5.0981 652.337 5.27063 649.805L5.67981 643.801C5.80014 642.035 5.84236 640.271 5.80579 638.51L5.68079 632.513C5.62946 630.042 5.7971 627.576 6.17981 625.121L7.11438 619.129C7.31826 617.821 7.34803 616.523 7.20715 615.217L6.55871 609.203C6.29031 606.715 6.2497 604.224 6.43957 601.737L6.89661 595.752C7.00259 594.363 6.95232 592.969 6.74036 591.557L5.83899 585.557C5.42034 582.77 5.41994 579.97 5.83996 577.183L6.74329 571.196C6.97766 569.641 7.07905 568.092 7.04993 566.545L6.93664 560.543C6.89316 558.234 6.98337 555.925 7.20618 553.62L7.78625 547.618C7.96335 545.786 8.08169 543.953 8.14172 542.119L8.33899 536.107C8.40173 534.19 8.43276 532.276 8.43274 530.366V524.371C8.43271 522.45 8.40435 520.529 8.34875 518.607L8.1759 512.611C8.12243 510.764 8.01589 508.913 7.85754 507.06L7.34485 501.053C7.1213 498.437 7.19949 495.822 7.57727 493.219L8.44836 487.217C8.6135 486.079 8.59417 484.948 8.38391 483.792L7.29211 477.783C6.76038 474.858 6.74636 471.91 7.25598 468.982L8.29895 462.993C8.5387 461.616 8.61076 460.253 8.52161 458.89L8.12903 452.885C7.96565 450.389 8.03322 447.894 8.33118 445.407L9.04993 439.406C9.18236 438.3 9.13277 437.19 8.88489 436.039L7.59094 430.032C7.02048 427.384 6.7843 424.705 6.89563 422.013L7.14368 416.014C7.22781 413.981 7.3257 411.947 7.43567 409.913L7.75989 403.913C7.87973 401.696 8.09006 399.482 8.38977 397.272L9.20227 391.277C9.42184 389.658 9.52268 388.043 9.50696 386.43L9.44836 380.428C9.43106 378.656 9.33776 376.882 9.16809 375.106L8.59485 369.1C8.38573 366.911 8.25391 364.721 8.20032 362.532L8.05383 356.533C7.9931 354.052 8.15543 351.576 8.53821 349.112L9.46985 343.116C9.64696 341.976 9.63911 340.844 9.44153 339.687L8.41418 333.676C7.94142 330.908 7.87423 328.12 8.21985 325.338L8.96496 319.341C9.1635 317.742 9.23941 316.151 9.19348 314.563L9.01965 308.569C8.95192 306.228 9.03533 303.887 9.2677 301.549L9.8634 295.547C10.0259 293.912 10.075 292.279 10.0109 290.645L9.77551 284.636C9.697 282.635 9.61698 280.636 9.53625 278.638L9.29407 272.636C9.19837 270.267 9.2663 267.9 9.49719 265.538L10.0822 259.549C10.223 258.108 10.2135 256.669 10.0519 255.222L9.38098 249.226C9.09382 246.657 9.08402 244.081 9.35071 241.509L9.97375 235.498C10.0855 234.42 10.016 233.329 9.74036 232.185L8.29016 226.17C7.53352 223.032 7.47173 219.837 8.12414 216.672L9.36047 210.674C9.6145 209.441 9.67884 208.239 9.56555 207.043L8.99719 201.04C8.80925 199.055 8.61595 197.07 8.41614 195.086L7.81164 189.084C7.51144 186.102 7.7608 183.139 8.52746 180.24L10.1124 174.248C10.4261 173.062 10.5318 171.928 10.4591 170.816L10.0665 164.812C9.92073 162.584 9.86963 160.354 9.91418 158.125L10.0343 152.12C10.0678 150.442 10.0004 148.762 9.8302 147.079L9.22278 141.074C8.94979 138.375 9.0314 135.676 9.46496 132.995L10.4337 127.008C10.5788 126.111 10.5436 125.219 10.3019 124.265L8.78528 118.283C8.0534 115.396 7.82879 112.451 8.13489 109.491L8.75793 103.468C8.94893 101.621 9.08285 99.7819 9.1593 97.951L9.4093 91.9627C9.47571 90.3721 9.42193 88.7784 9.24621 87.1795L8.58704 81.1873C8.27919 78.3862 8.39635 75.5853 8.9259 72.8113L10.0734 66.7996C10.3384 65.4113 10.4318 64.0496 10.3634 62.7019L10.0597 56.7068C9.94211 54.3897 9.96253 52.0713 10.1222 49.7537L10.5363 43.7518C10.6117 42.6551 10.4969 40.3892 9.92297 36.5711L8.94934 30.0916L8.94446 29.5252C8.94392 29.4697 8.98855 29.4243 9.04407 29.4238L17.6437 29.3572L18.9366 29.1629C22.2056 28.6715 25.2539 30.9232 25.7452 34.1922ZM308.885 759.881C307.937 759.863 307.069 760.028 306.213 760.381L300.585 762.702C299.216 763.267 297.944 763.955 296.759 764.764L291.807 768.15C290.523 769.028 289.351 769.984 288.284 771.019L284.08 775.099C283.013 776.135 282.066 777.234 281.232 778.397L277.88 783.067C276.818 784.548 275.747 786.094 274.668 787.708L271.293 792.758C270.786 793.516 270.469 794.308 270.314 795.199L269.271 801.172C268.805 803.836 267.79 807.211 266.437 811.055L265.308 814.256C265.132 814.758 265.472 815.293 266.001 815.346L271.997 815.95C273.253 816.076 274.513 816.029 275.795 815.802L281.797 814.734C284.313 814.287 286.846 814.091 289.387 814.151L295.391 814.292C297.155 814.333 298.919 814.297 300.684 814.181L306.686 813.789C308.991 813.638 311.298 813.62 313.604 813.734L319.604 814.03C321.587 814.128 323.57 814.219 325.553 814.305L331.552 814.562C333.414 814.642 335.278 814.675 337.142 814.659L343.145 814.608C345.654 814.587 348.153 814.804 350.636 815.255L356.625 816.341C357.666 816.529 358.693 816.53 359.752 816.335L365.768 815.227C368.12 814.795 370.481 814.521 372.847 814.409C372.976 814.403 373.004 814.223 372.882 814.178L372.793 814.145C372.771 814.137 372.751 814.123 372.735 814.105L372.694 814.056L371.123 812.192C370.36 811.287 370.105 810.057 370.447 808.923C370.705 808.063 370.624 807.137 370.22 806.335L368.088 802.108C367.459 800.862 366.704 799.739 365.821 798.721L361.857 794.148C360.536 792.626 359.219 791.108 357.907 789.597L353.968 785.061C352.897 783.828 351.752 782.681 350.532 781.618L346.026 777.694C344.777 776.606 343.48 775.614 342.136 774.716L337.24 771.445C335.377 770.2 333.564 768.848 331.799 767.391L327.108 763.519C326.385 762.923 325.611 762.515 324.728 762.261L318.907 760.582C317.646 760.218 316.351 760.022 315.003 759.997L308.885 759.881ZM418.858 761.861C417.266 762.452 415.743 763.135 414.285 763.91L408.955 766.744C407.517 767.509 406.139 768.374 404.818 769.341L399.934 772.917C398.17 774.208 396.364 775.445 394.516 776.628L389.391 779.908C388.93 780.203 387.561 781.404 385.251 784.46L380.747 790.418C380.699 790.482 380.639 790.536 380.571 790.577C380.261 790.763 380.175 791.173 380.375 791.473C381.108 792.571 381.774 793.714 382.373 794.901L385.138 800.382C385.647 801.391 386.124 802.406 386.478 803.336C386.651 803.791 386.866 804.408 387.023 805.099C387.121 805.532 387.485 807.127 387.059 809.034L386.934 809.596L386.869 809.881L386.062 813.99C386.012 814.244 386.186 814.485 386.443 814.524L392.432 815.443C393.794 815.652 395.151 815.696 396.516 815.575L402.536 815.041C404.84 814.837 406.81 813.128 407.031 810.825L408.197 798.684C408.226 798.388 408.558 798.227 408.808 798.389C409.023 798.529 409.311 798.431 409.399 798.191C409.574 797.713 409.758 797.231 409.95 796.745L412.128 791.239C412.97 789.111 413.938 787.031 415.029 785.002L417.866 779.728C418.495 778.56 418.98 777.311 419.32 775.964L420.815 770.048C421.295 768.145 421.725 766.332 422.106 764.61L422.918 760.94C422.944 760.821 422.908 760.698 422.823 760.612C422.724 760.513 422.577 760.48 422.446 760.529L418.858 761.861Z" fill="#C9C4B5"/>
<path d="M362.511 271.489L370.539 275.408L370.307 275.882L366.907 281.297C364.873 284.535 363.946 286.492 363.643 287.43L361.785 293.193C361.028 295.539 360.082 297.803 358.947 299.98L356.171 305.302C355.365 306.847 354.635 308.43 353.979 310.052L351.723 315.636C350.784 317.962 349.633 320.184 348.275 322.295L345.012 327.367C344.201 328.629 343.518 329.953 342.962 331.344L340.724 336.937C339.768 339.329 338.566 341.598 337.126 343.737L333.75 348.752C333.108 349.705 332.629 350.74 332.307 351.891L330.66 357.787C329.775 360.954 328.202 363.794 326.011 366.236L321.86 370.86C320.977 371.845 320.296 372.875 319.785 373.958L317.222 379.385C316.386 381.157 315.564 382.935 314.756 384.719L312.278 390.187C311.449 392.018 310.615 393.85 309.777 395.684L307.273 401.163C306.499 402.856 305.771 404.572 305.089 406.309L302.884 411.927C301.879 414.487 300.537 416.872 298.874 419.066L295.203 423.912C294.428 424.934 293.822 426.023 293.37 427.196L291.199 432.828C290.464 434.734 289.726 436.614 288.986 438.469L287.536 442.099L287.752 442.344L288.801 443.526L294.24 443.443C296.171 443.413 298.09 443.349 299.994 443.252L305.994 442.945C307.542 442.866 309.09 442.656 310.643 442.311L316.593 440.99C319.435 440.359 322.321 440.203 325.215 440.528L331.254 441.207C332.502 441.347 333.725 441.307 334.949 441.088L340.91 440.021C343.674 439.526 346.464 439.443 349.255 439.772L355.293 440.484C356.287 440.601 357.262 440.533 358.271 440.262L364.207 438.671C366.668 438.011 369.16 437.587 371.678 437.41L377.665 436.988C380.478 436.79 383.279 437.022 386.043 437.656L392.109 439.047C392.956 439.241 393.715 439.232 394.48 439.051L400.429 437.637C402.844 437.064 405.282 436.696 407.738 436.539L413.729 436.155C415.64 436.033 417.551 435.88 419.461 435.695L425.448 435.117C428.299 434.842 431.143 435.024 433.95 435.641L439.992 436.969C441.335 437.265 442.63 437.371 443.896 437.308L449.886 437.012C452.047 436.906 454.209 436.865 456.373 436.891L462.376 436.964C464.115 436.984 465.854 436.921 467.591 436.771L473.579 436.256C475.735 436.07 477.894 435.95 480.053 435.895L486.046 435.744C488.49 435.682 490.93 435.824 493.359 436.169L499.338 437.017C500.614 437.199 501.894 437.207 503.196 437.04L509.226 436.264C511.606 435.958 513.989 435.82 516.373 435.851L522.382 435.931C524.936 435.965 527.47 436.261 529.974 436.815L535.909 438.128C537.596 438.501 539.282 438.775 540.967 438.952L546.932 439.578C548.244 439.715 549.587 439.69 550.975 439.488L557.061 438.604C559.859 438.198 562.664 438.203 565.449 438.635L571.393 439.554C573.36 439.859 575.328 440.157 577.299 440.451L583.256 441.339C585.122 441.617 586.416 441.748 587.236 441.786L589.043 441.869L592.573 442.028L592.707 442.034L592.839 442.044L592.939 442.052L592.081 453.005L591.855 458.011L588.326 457.853L588.319 457.852L586.504 457.769C584.904 457.696 583.003 457.477 580.898 457.164L574.942 456.277C572.941 455.979 570.943 455.675 568.946 455.366L563.002 454.446C561.824 454.264 560.619 454.256 559.359 454.439L553.273 455.322C550.604 455.709 547.929 455.77 545.263 455.49L539.298 454.864C537.005 454.624 534.723 454.252 532.454 453.75L526.519 452.437C525.068 452.116 523.62 451.949 522.169 451.929L516.16 451.849C514.538 451.828 512.909 451.922 511.268 452.134L505.238 452.909C502.521 453.259 499.798 453.244 497.089 452.859L491.11 452.01C489.554 451.789 488.002 451.699 486.452 451.738L480.459 451.89C478.623 451.937 476.786 452.039 474.95 452.197L468.961 452.713C466.705 452.907 464.445 452.99 462.183 452.963L456.181 452.89C454.344 452.868 452.509 452.902 450.676 452.993L444.685 453.289C441.958 453.424 439.242 453.187 436.557 452.596L430.515 451.268C429.294 451 428.127 450.933 426.986 451.043L420.999 451.621C418.917 451.822 416.834 451.99 414.751 452.123L408.759 452.506C407.221 452.604 405.678 452.835 404.127 453.204L398.178 454.617C394.978 455.377 391.73 455.376 388.533 454.642L382.466 453.251C381.185 452.957 379.968 452.866 378.79 452.949L372.803 453.371C371.329 453.475 369.848 453.723 368.351 454.124L362.416 455.716C359.468 456.506 356.452 456.731 353.421 456.374L347.383 455.663C346.148 455.517 344.938 455.554 343.729 455.77L337.769 456.838C335.02 457.33 332.244 457.419 329.467 457.107L323.428 456.428C322.295 456.301 321.185 456.36 320.061 456.609L314.112 457.93C311.699 458.466 309.264 458.799 306.811 458.925L300.81 459.231C298.714 459.338 296.606 459.408 294.487 459.441L288.412 459.535C284.458 459.596 280.477 458.259 277.519 454.921L274.033 450.986C272.522 449.28 271.41 447.129 271.062 444.617C270.723 442.165 271.185 439.904 271.941 438.01L274.126 432.536C274.842 430.741 275.558 428.92 276.27 427.072L278.441 421.44C279.436 418.859 280.778 416.456 282.451 414.249L286.122 409.403C286.906 408.368 287.525 407.265 287.99 406.08L290.195 400.462C290.983 398.454 291.825 396.47 292.72 394.511L295.224 389.033C296.055 387.215 296.882 385.398 297.704 383.584L300.181 378.116C301.024 376.256 301.882 374.402 302.754 372.555L305.316 367.128C306.513 364.593 308.07 362.272 309.953 360.174L314.103 355.55C314.678 354.909 315.038 354.243 315.251 353.481L316.897 347.586C317.674 344.808 318.868 342.206 320.477 339.816L323.853 334.802C324.664 333.599 325.334 332.331 325.869 330.994L328.107 325.4C329.043 323.062 330.194 320.83 331.556 318.712L334.818 313.639C335.635 312.369 336.324 311.039 336.888 309.642L339.144 304.058C339.993 301.959 340.94 299.907 341.985 297.903L344.761 292.582C345.476 291.211 346.074 289.779 346.556 288.283L348.415 282.52C349.351 279.617 351.16 276.285 353.358 272.786L356.532 267.733L362.511 271.489Z" fill="#C9C4B5"/>
<path d="M445.937 270.941C446.338 274.961 446.57 278.257 446.573 280.66L446.582 286.652C446.585 288.829 446.516 291.008 446.373 293.189L445.979 299.202C445.853 301.143 445.749 303.078 445.67 305.008L445.424 310.991C445.339 313.049 445.23 315.11 445.096 317.176L444.706 323.186C444.596 324.888 444.582 326.587 444.664 328.283L444.955 334.28C445.07 336.65 445.021 339.019 444.807 341.384L444.265 347.376C444.148 348.668 444.2 349.967 444.429 351.29L445.469 357.297C445.883 359.686 446.117 362.085 446.169 364.49L446.3 370.488C446.347 372.68 446.316 374.874 446.205 377.067L445.901 383.074C445.799 385.098 445.689 387.12 445.57 389.14L445.218 395.132C445.126 396.69 445.162 398.253 445.327 399.824L445.959 405.831C446.217 408.284 446.265 410.743 446.104 413.2L445.709 419.207C445.576 421.23 445.435 423.25 445.286 425.269L444.845 431.261C444.728 432.844 444.734 434.428 444.864 436.015L445.355 442.013C445.508 443.877 445.709 445.742 445.958 447.609L446.756 453.61C447.159 456.639 446.973 459.661 446.227 462.623L444.713 468.627C444.454 469.655 444.406 470.622 444.538 471.584L445.364 477.587C445.678 479.867 445.87 482.152 445.939 484.439L446.12 490.442C446.194 492.902 446.057 495.359 445.712 497.806L444.865 503.809C444.686 505.078 444.683 506.336 444.857 507.603L445.682 513.603C445.973 515.726 446.215 517.85 446.406 519.975L446.945 525.974C447.18 528.585 447.114 531.198 446.75 533.799L445.909 539.799C445.668 541.523 445.518 543.244 445.46 544.961L445.257 550.961C445.206 552.459 445.295 553.962 445.527 555.477L446.448 561.477C446.899 564.416 446.823 567.366 446.231 570.281L445.014 576.283C444.69 577.879 444.497 579.461 444.43 581.032L444.174 587.033C444.091 588.978 444.029 590.923 443.986 592.868L443.855 598.868C443.828 600.127 443.971 601.409 444.306 602.732L445.822 608.731C446.464 611.272 446.833 613.844 446.915 616.437L447.106 622.436C447.189 625.036 446.98 627.627 446.487 630.196L445.337 636.197C445.078 637.548 444.995 638.874 445.077 640.191L445.452 646.191C445.593 648.451 445.623 650.711 445.544 652.972L445.334 658.972C445.3 659.934 445.283 660.66 445.28 661.175C445.279 661.432 445.281 661.603 445.284 661.704L445.345 662.245L445.512 663.648L445.568 664.119V664.693L436.731 664.697L429.625 665.546L429.457 664.143L429.454 664.112L429.45 664.081L429.366 663.329C429.231 662.115 429.281 660.193 429.344 658.41L429.555 652.41C429.616 650.67 429.591 648.93 429.482 647.189L429.108 641.189C428.941 638.508 429.115 635.834 429.623 633.185L430.773 627.184C431.048 625.753 431.159 624.344 431.114 622.945L430.923 616.945C430.878 615.539 430.678 614.111 430.31 612.652L428.793 606.653C428.117 603.978 427.799 601.26 427.859 598.519L427.99 592.519C428.035 590.463 428.101 588.408 428.188 586.353L428.444 580.352C428.548 577.923 428.845 575.504 429.333 573.1L430.552 567.099C430.772 566.014 430.795 564.963 430.633 563.903L429.712 557.903C429.33 555.418 429.181 552.92 429.266 550.418L429.47 544.418C429.547 542.135 429.746 539.855 430.064 537.58L430.904 531.58C431.1 530.181 431.135 528.794 431.01 527.406L430.471 521.407C430.302 519.533 430.089 517.657 429.831 515.78L429.007 509.78C428.631 507.047 428.637 504.304 429.022 501.572L429.869 495.569C430.089 494.014 430.174 492.468 430.128 490.926L429.946 484.923C429.895 483.209 429.751 481.491 429.514 479.77L428.687 473.767C428.269 470.727 428.449 467.691 429.198 464.717L430.712 458.713C430.974 457.673 431.026 456.693 430.896 455.722L430.098 449.721C429.814 447.588 429.584 445.454 429.409 443.319L428.918 437.321C428.72 434.91 428.71 432.496 428.888 430.085L429.329 424.093C429.475 422.116 429.613 420.137 429.743 418.156L430.139 412.15C430.24 410.604 430.21 409.057 430.047 407.506L429.415 401.498C429.159 399.064 429.102 396.627 429.245 394.191L429.598 388.199C429.714 386.224 429.822 384.247 429.922 382.268L430.226 376.261C430.317 374.45 430.343 372.642 430.304 370.836L430.173 364.838C430.138 363.244 429.983 361.641 429.703 360.026L428.663 354.02C428.199 351.338 428.084 348.636 428.329 345.934L428.872 339.941C429.02 338.312 429.054 336.685 428.975 335.057L428.683 329.06C428.571 326.758 428.59 324.454 428.739 322.15L429.129 316.141C429.255 314.2 429.358 312.263 429.437 310.332L429.684 304.35C429.768 302.291 429.878 300.227 430.014 298.159L430.406 292.146C430.526 290.318 430.585 288.494 430.582 286.676L430.573 280.684C430.571 279.092 430.404 276.43 430.016 272.527L429.385 266.192V265.697L438.39 265.693L445.346 265L445.937 270.941Z" fill="#C9C4B5"/>
<path d="M638.168 268.998C641.27 267.552 644.599 266.92 648.032 267.18L654.113 267.643C656.363 267.814 658.577 268.078 660.752 268.435L666.569 269.391C668.476 269.705 670.409 270.012 672.366 270.31L678.326 271.22C680.738 271.589 683.109 272.149 685.434 272.9L691.187 274.759C694.642 275.875 697.577 277.937 699.781 280.851L703.374 285.602C704.628 287.261 705.86 288.952 707.071 290.675L710.545 295.619C712.04 297.746 713.285 300.012 714.269 302.407L716.535 307.921C717.298 309.779 718.056 311.645 718.809 313.519L721.043 319.085C721.531 320.299 722.163 321.426 722.948 322.48L726.536 327.301C727.843 329.056 729.092 330.862 730.283 332.718L733.561 337.823C734.927 339.95 736.081 342.19 737.023 344.537L739.285 350.174C740.268 352.625 740.959 355.164 741.358 357.778L742.277 363.803C742.54 365.531 742.894 367.234 743.337 368.913L744.888 374.78C745.721 377.934 745.807 381.155 745.172 384.346L743.968 390.406C743.7 391.757 743.618 393.055 743.704 394.317L744.108 400.284C744.273 402.713 744.237 405.142 743.999 407.564L743.414 413.511C743.262 415.05 743.237 416.624 743.342 418.239L743.742 424.355C743.957 427.654 743.403 430.872 742.107 433.909L739.687 439.58C739.233 440.644 738.986 441.701 738.919 442.785L738.55 448.829C738.376 451.689 737.756 454.466 736.7 457.131L734.464 462.771C733.846 464.331 733.338 465.904 732.938 467.494L731.479 473.296C731.011 475.157 730.57 477.025 730.154 478.899L728.858 484.743C728.326 487.141 727.593 489.471 726.657 491.727L724.393 497.185C723.57 499.17 722.676 501.135 721.713 503.081L719.057 508.45C718.137 510.31 717.184 512.167 716.199 514.02L713.352 519.376C711.891 522.124 709.923 524.496 707.503 526.45L702.73 530.304C701.459 531.33 700.307 532.422 699.267 533.578L695.273 538.017C694.02 539.41 692.791 540.837 691.587 542.298L687.757 546.945C686.435 548.55 685.091 550.136 683.726 551.705L679.772 556.248C678.268 557.976 676.676 559.62 674.999 561.178L670.589 565.272C669.043 566.708 667.466 568.118 665.857 569.5L661.264 573.444C659.496 574.963 657.64 576.377 655.699 577.687L650.638 581.101C648.116 582.803 645.344 583.991 642.374 584.651L636.381 585.983C634.228 586.462 632.087 586.871 629.959 587.207L624.083 588.136C621.336 588.57 618.563 588.59 615.791 588.22L609.703 587.405C605.948 586.903 602.607 585.261 599.911 582.613L595.504 578.286C594.083 576.89 592.688 575.555 591.319 574.279L587.048 570.3C585.512 568.868 583.99 567.366 582.483 565.797L578.254 561.394C575.917 558.96 574.278 556.062 573.375 552.82L571.714 546.863C571.464 545.965 571.06 545.194 570.469 544.485L566.521 539.743C564.684 537.537 563.215 535.097 562.145 532.441L559.887 526.838C558.991 524.613 558.258 522.332 557.691 520.001L556.262 514.129C555.723 511.913 555.296 509.678 554.982 507.426L554.152 501.468C553.908 499.72 553.587 497.996 553.189 496.293L551.829 490.47C551.233 487.92 550.941 485.327 550.952 482.705L550.976 476.703C550.981 475.534 550.809 474.349 550.433 473.125L548.616 467.209C547.792 464.527 547.353 461.778 547.32 458.986L547.249 452.967C547.225 450.946 547.207 448.925 547.194 446.904L547.155 440.884C547.137 438.092 547.525 435.337 548.298 432.641L550.005 426.694C550.236 425.889 550.275 425.122 550.127 424.299L549.034 418.21C548.411 414.743 548.738 411.284 550 407.996L552.215 402.217C552.77 400.771 553.157 399.348 553.391 397.943L554.37 392.076C554.714 390.012 555.101 387.951 555.532 385.894L556.755 380.045C557.128 378.265 557.446 376.454 557.709 374.614L558.572 368.595C558.993 365.649 559.92 362.846 561.338 360.23L564.239 354.881C565.143 353.212 565.996 351.542 566.797 349.871L569.376 344.49C570.153 342.87 570.873 341.217 571.538 339.53L573.74 333.939C574.556 331.868 575.458 329.831 576.446 327.83L579.116 322.426C580.316 319.995 581.817 317.753 583.606 315.713L587.603 311.155C588.688 309.918 589.675 308.618 590.566 307.254L593.861 302.208C595.586 299.566 597.81 297.375 600.471 295.683L605.583 292.434C606.849 291.63 608.018 290.716 609.096 289.688L613.466 285.522C615.455 283.627 617.671 282.031 620.099 280.753L625.344 277.99C626.417 275.393 628.478 273.963 629.121 273.519C630.174 272.791 631.364 272.17 632.497 271.642L638.168 268.998ZM646.819 283.135C646.198 283.087 645.61 283.183 644.929 283.5L639.391 286.081C638.388 288.336 636.67 289.668 636.044 290.143C635.054 290.895 633.934 291.551 632.864 292.114L627.553 294.91C626.441 295.496 625.43 296.222 624.505 297.103L620.135 301.269C618.3 303.019 616.308 304.576 614.166 305.937L609.053 309.186C608.307 309.661 607.729 310.234 607.257 310.956L603.962 316.002C602.657 318.001 601.213 319.903 599.633 321.704L595.636 326.261C594.761 327.259 594.041 328.338 593.461 329.511L590.791 334.916C590 336.518 589.278 338.147 588.626 339.803L586.425 345.393C585.622 347.434 584.748 349.438 583.805 351.405L581.226 356.787C580.308 358.703 579.333 360.61 578.304 362.508L575.405 367.856C574.89 368.806 574.562 369.794 574.41 370.861L573.548 376.882C573.237 379.055 572.86 381.202 572.416 383.322L571.192 389.172C570.806 391.015 570.46 392.861 570.152 394.708L569.173 400.574C568.756 403.08 568.078 405.539 567.155 407.946L564.938 413.725C564.722 414.29 564.675 414.788 564.782 415.38L565.875 421.469C566.457 424.704 566.291 427.949 565.384 431.108L563.678 437.055C563.314 438.324 563.146 439.559 563.154 440.78L563.193 446.801C563.206 448.793 563.224 450.786 563.248 452.778L563.319 458.798C563.333 460.019 563.523 461.25 563.911 462.511L565.728 468.428C566.563 471.147 566.988 473.936 566.976 476.768L566.952 482.771C566.946 484.151 567.099 485.499 567.41 486.83L568.77 492.652C569.279 494.831 569.688 497.033 569.999 499.259L570.829 505.217C571.068 506.937 571.395 508.646 571.808 510.345L573.238 516.219C573.623 517.802 574.119 519.348 574.728 520.858L576.986 526.462C577.421 527.541 578.021 528.55 578.816 529.505L582.765 534.247C584.807 536.699 586.271 539.495 587.127 542.568L588.788 548.526C588.991 549.255 589.314 549.811 589.794 550.311L594.023 554.715C595.334 556.08 596.645 557.373 597.956 558.594L602.226 562.573C603.704 563.95 605.201 565.382 606.716 566.871L611.122 571.197C611.362 571.433 611.519 571.506 611.824 571.547L617.913 572.361C619.2 572.533 620.416 572.517 621.585 572.332L627.462 571.403C629.253 571.12 631.069 570.774 632.91 570.365L638.902 569.033C639.927 568.805 640.839 568.411 641.69 567.837L646.75 564.424C648.182 563.458 649.545 562.419 650.838 561.307L655.431 557.363C656.884 556.115 658.307 554.843 659.701 553.549L664.111 549.453C665.373 548.281 666.57 547.045 667.703 545.744L671.657 541.2C672.928 539.74 674.18 538.263 675.411 536.769L679.241 532.122C680.59 530.484 681.97 528.883 683.379 527.316L687.373 522.877C688.995 521.073 690.766 519.4 692.678 517.856L697.452 514.002C698.214 513.386 698.787 512.687 699.224 511.865L702.072 506.511C702.985 504.794 703.866 503.075 704.716 501.356L707.373 495.986C708.181 494.352 708.928 492.709 709.614 491.054L711.877 485.596C712.451 484.214 712.905 482.776 713.237 481.278L714.534 475.435C714.982 473.414 715.458 471.4 715.962 469.393L717.421 463.593C717.994 461.315 718.718 459.075 719.59 456.875L721.826 451.234C722.26 450.139 722.509 449.022 722.581 447.853L722.95 441.81C723.13 438.866 723.811 436.017 724.97 433.301L727.39 427.63C727.707 426.886 727.827 426.175 727.776 425.397L727.376 419.282C727.216 416.82 727.252 414.374 727.491 411.947L728.075 406C728.226 404.458 728.25 402.914 728.145 401.366L727.74 395.4C727.556 392.685 727.741 389.975 728.275 387.287L729.479 381.227C729.648 380.379 729.618 379.624 729.418 378.867L727.869 373C727.279 370.767 726.81 368.505 726.46 366.216L725.541 360.189C725.327 358.786 724.959 357.437 724.435 356.131L722.173 350.495C721.607 349.084 720.917 347.744 720.097 346.468L716.819 341.362C715.825 339.814 714.785 338.311 713.701 336.854L710.113 332.034C708.506 329.876 707.198 327.541 706.196 325.046L703.961 319.481C703.225 317.646 702.483 315.82 701.736 314.002L699.47 308.488C698.944 307.208 698.275 305.986 697.455 304.818L693.98 299.874C692.875 298.301 691.751 296.76 690.611 295.252L687.019 290.502C686.828 290.248 686.648 290.107 686.268 289.984L680.515 288.126C679.005 287.638 677.472 287.275 675.912 287.037L669.951 286.128C667.935 285.82 665.942 285.503 663.972 285.179L658.157 284.223C656.455 283.944 654.703 283.734 652.9 283.597L646.819 283.135Z" fill="#C9C4B5"/>
<path d="M887.177 280.064L892.622 284.453L888.867 289.111C886.259 292.346 883.635 295.185 881.081 297.018L876.144 300.562C875.216 301.229 874.432 302.016 873.767 302.95L870.242 307.909C868.668 310.123 866.833 312.104 864.747 313.835L860.105 317.684C858.95 318.643 857.902 319.697 856.955 320.851L853.14 325.503C851.613 327.365 849.952 329.102 848.161 330.714L843.686 334.739C842.143 336.127 840.577 337.499 838.99 338.854L834.384 342.785C833.149 343.839 832.007 344.972 830.953 346.184L827.006 350.724C826.161 351.696 825.435 352.79 824.83 354.031L822.12 359.587C820.771 362.352 818.941 364.791 816.648 366.844L812.12 370.901C811.185 371.739 810.407 372.673 809.767 373.719L806.621 378.861C805.214 381.16 803.532 383.252 801.588 385.13L797.2 389.365C796.59 389.954 796.139 390.63 795.815 391.474L793.605 397.242C792.624 399.802 791.335 402.195 789.731 404.396L786.202 409.239C785.076 410.784 783.976 412.345 782.902 413.924L779.534 418.872C779.307 419.205 779.198 419.426 779.151 419.536V419.55L781.253 420.082C783.045 420.536 784.903 420.984 786.826 421.425L792.762 422.786C794.162 423.107 795.553 423.264 796.945 423.263L802.953 423.261C805.113 423.261 807.272 423.325 809.427 423.452L815.422 423.805C816.888 423.892 818.366 423.834 819.861 423.627L825.885 422.792C828.72 422.399 831.561 422.451 834.378 422.951L840.344 424.01C841.894 424.285 843.441 424.426 844.986 424.436L850.987 424.477C853.048 424.491 855.107 424.529 857.165 424.59L863.158 424.766C865.448 424.834 867.731 425.026 870.005 425.344L875.965 426.177C877.713 426.421 879.464 426.585 881.217 426.67L887.204 426.959C889.05 427.048 890.902 427.085 892.759 427.071L898.778 427.026C900.606 427.012 902.442 426.937 904.287 426.801L910.346 426.353C913.014 426.156 915.671 426.284 918.301 426.741L924.238 427.772C926.408 428.149 928.569 428.606 930.718 429.142L936.611 430.611C937.514 430.836 938.432 430.881 939.431 430.723L945.545 429.759C948.5 429.292 951.467 429.343 954.397 429.937L960.314 431.136C961.84 431.446 963.373 431.622 964.917 431.666L970.925 431.838C973.747 431.918 976.512 432.426 979.195 433.337L985.041 435.32C985.965 435.634 986.849 435.738 987.756 435.662L993.813 435.154C996.191 434.955 998.568 434.917 1000.94 435.041L1006.97 435.356C1008.57 435.44 1010.16 435.399 1011.74 435.234L1017.74 434.612C1019.71 434.408 1021.65 434.195 1023.57 433.973L1029.42 433.296C1032.77 432.907 1036.14 433.397 1039.27 434.966L1044.11 437.391C1044.88 437.781 1045.44 438.052 1045.8 438.221C1045.81 438.224 1045.81 438.226 1045.82 438.228L1045.88 438.246L1046.63 438.449L1044.66 445.677L1044.63 446.176L1044.09 454.157L1043.2 454.096L1041.76 453.707L1041.44 453.626C1040.4 453.368 1039.34 452.858 1039.07 452.736C1038.49 452.466 1037.77 452.112 1036.93 451.693L1032.1 449.267C1032 449.219 1031.8 449.126 1031.26 449.189L1025.41 449.867C1023.43 450.096 1021.42 450.317 1019.39 450.527L1013.39 451.149C1010.98 451.399 1008.56 451.46 1006.14 451.334L1000.11 451.019C998.462 450.933 996.81 450.959 995.149 451.098L989.09 451.605C985.959 451.868 982.874 451.48 979.901 450.471L974.054 448.488C972.84 448.076 971.653 447.865 970.468 447.831L964.46 447.66C961.997 447.59 959.554 447.309 957.135 446.818L951.218 445.618C950.204 445.412 949.16 445.385 948.04 445.562L941.925 446.527C938.849 447.013 935.765 446.89 932.74 446.135L926.848 444.667C925.07 444.223 923.288 443.847 921.501 443.537L915.564 442.506C914.237 442.275 912.895 442.209 911.524 442.31L905.465 442.758C903.272 442.92 901.082 443.009 898.898 443.025L892.881 443.071C890.726 443.087 888.576 443.044 886.431 442.94L880.445 442.65C878.208 442.542 875.976 442.333 873.752 442.022L867.792 441.19C866.093 440.953 864.391 440.809 862.686 440.759L856.693 440.582C854.756 440.525 852.817 440.489 850.878 440.476L844.877 440.436C842.422 440.42 839.978 440.194 837.549 439.763L831.583 438.705C830.421 438.499 829.265 438.477 828.083 438.64L822.057 439.475C819.536 439.825 817.007 439.927 814.478 439.778L808.485 439.424C806.645 439.315 804.802 439.261 802.957 439.261L796.949 439.263C794.336 439.264 791.744 438.968 789.186 438.382L783.25 437.02C781.215 436.554 779.24 436.077 777.323 435.592L771.759 434.182C769.961 433.727 767.655 432.797 765.787 430.78C763.734 428.564 762.935 425.821 763.02 423.238L763.168 418.8C763.281 415.364 764.62 412.348 766.307 409.869L769.675 404.921C770.846 403.2 772.045 401.498 773.271 399.815L776.8 394.973C777.549 393.946 778.172 392.802 778.665 391.517L780.875 385.75C782.024 382.749 783.771 380.091 786.086 377.855L790.473 373.62C791.454 372.673 792.282 371.639 792.973 370.51L796.12 365.367C797.578 362.984 799.359 360.851 801.443 358.984L805.972 354.927C806.699 354.277 807.281 353.511 807.739 352.572L810.449 347.016C811.65 344.554 813.143 342.283 814.93 340.227L818.878 335.687C820.455 333.873 822.163 332.181 823.998 330.615L828.602 326.684C830.085 325.419 831.547 324.139 832.986 322.844L837.46 318.819C838.651 317.747 839.754 316.593 840.769 315.355L844.585 310.705C846.181 308.759 847.95 306.979 849.889 305.371L854.531 301.52C855.538 300.685 856.426 299.729 857.202 298.637L860.727 293.679C862.413 291.308 864.45 289.261 866.813 287.564L871.75 284.02C872.487 283.491 874.012 282.044 876.411 279.069L880.166 274.411L880.415 274.101L880.764 273.747L887.177 280.064Z" fill="#C9C4B5"/>
<path d="M923.955 293.09C924.124 297.225 924.022 301.055 923.336 304.103L921.99 310.089C921.803 310.918 921.803 311.711 921.994 312.554L923.357 318.554C923.928 321.072 924.243 323.614 924.292 326.172L924.407 332.167C924.448 334.335 924.42 336.503 924.323 338.67L924.055 344.658C923.965 346.674 923.867 348.691 923.762 350.71L923.449 356.708C923.35 358.619 923.283 360.531 923.246 362.443L923.132 368.446C923.099 370.173 923.155 371.902 923.3 373.634L923.803 379.641C924.004 382.043 924.024 384.446 923.863 386.846L923.459 392.843C923.319 394.933 923.142 397.026 922.928 399.12L922.315 405.131C922.144 406.806 922.078 408.475 922.115 410.139L922.251 416.135C922.296 418.098 922.353 420.065 922.423 422.035L922.638 428.05C922.712 430.137 922.754 432.22 922.764 434.299L922.791 440.286C922.8 442.206 922.835 444.128 922.899 446.052L923.097 452.049C923.173 454.352 923.117 456.657 922.931 458.961L922.445 464.972C922.312 466.607 922.294 468.239 922.389 469.869L922.74 475.874C922.848 477.705 923.012 479.535 923.237 481.362L923.972 487.347C924.288 489.922 924.32 492.506 924.07 495.089L923.488 501.093C923.378 502.226 923.448 503.363 923.716 504.537L925.08 510.52C925.697 513.225 925.938 515.967 925.788 518.726L925.462 524.731C925.362 526.569 925.319 528.405 925.333 530.24L925.379 536.241C925.393 538.106 925.454 539.97 925.563 541.835L925.912 547.833C926.063 550.414 925.932 552.992 925.526 555.556L924.572 561.569C924.356 562.93 924.311 564.271 924.431 565.605L924.968 571.6C925.136 573.477 925.349 575.355 925.604 577.232L926.417 583.224C926.782 585.915 926.793 588.617 926.45 591.311L925.686 597.321C925.504 598.747 925.48 600.161 925.612 601.572L926.169 607.567C926.387 609.912 926.453 612.26 926.364 614.61L926.136 620.614C926.057 622.701 925.944 624.788 925.797 626.876L925.375 632.882C925.257 634.572 925.237 636.26 925.317 637.946L925.6 643.943C925.715 646.373 925.633 648.804 925.357 651.229L924.672 657.238C924.508 658.68 924.497 660.113 924.639 661.545L925.233 667.538C925.423 669.454 925.642 671.371 925.892 673.288L926.671 679.279C926.813 680.371 926.923 681.396 926.975 682.297C927.013 682.955 927.083 684.354 926.784 685.766L926.615 686.569L926.603 686.624L926.591 686.679L926.249 688.184L918.865 686.51L918.448 686.516L910.449 686.612L910.448 686.512L910.437 685.569L910.645 684.648L910.972 683.212L910.993 683.107C910.968 682.734 910.911 682.16 910.805 681.344L910.026 675.352C909.755 673.275 909.517 671.195 909.311 669.116L908.717 663.123C908.463 660.559 908.483 657.99 908.775 655.427L909.459 649.418C909.639 647.837 909.691 646.265 909.617 644.697L909.334 638.7C909.225 636.388 909.253 634.074 909.415 631.76L909.836 625.755C909.971 623.838 910.075 621.923 910.148 620.008L910.375 614.004C910.438 612.352 910.392 610.701 910.239 609.05L909.681 603.055C909.44 600.471 909.485 597.882 909.814 595.302L910.578 589.292C910.745 587.98 910.74 586.681 910.563 585.377L909.749 579.385C909.462 577.268 909.223 575.15 909.032 573.03L908.494 567.035C908.256 564.373 908.349 561.711 908.769 559.063L909.723 553.051C909.952 551.607 910.022 550.181 909.94 548.763L909.59 542.766C909.466 540.633 909.395 538.498 909.379 536.362L909.334 530.361C909.318 528.196 909.368 526.03 909.486 523.864L909.812 517.86C909.879 516.616 909.774 515.362 909.481 514.077L908.116 508.093C907.475 505.277 907.285 502.418 907.563 499.549L908.145 493.545C908.282 492.124 908.264 490.711 908.09 489.296L907.356 483.31C907.09 481.147 906.895 478.979 906.768 476.807L906.416 470.802C906.278 468.43 906.305 466.056 906.496 463.683L906.983 457.672C907.12 455.968 907.161 454.27 907.105 452.575L906.907 446.578C906.839 444.504 906.801 442.43 906.791 440.359L906.764 434.372C906.755 432.459 906.716 430.542 906.648 428.62L906.433 422.606C906.36 420.567 906.301 418.53 906.255 416.497L906.119 410.502C906.067 408.169 906.16 405.836 906.398 403.506L907.011 397.496C907.206 395.584 907.367 393.675 907.495 391.769L907.899 385.774C908.006 384.178 907.993 382.579 907.859 380.975L907.356 374.967C907.166 372.693 907.092 370.418 907.135 368.143L907.249 362.14C907.289 360.051 907.363 357.963 907.472 355.876L907.783 349.878C907.887 347.898 907.983 345.919 908.072 343.942L908.339 337.954C908.421 336.128 908.444 334.301 908.409 332.472L908.295 326.477C908.268 325.038 908.09 323.58 907.753 322.097L906.391 316.096C905.674 312.939 905.669 309.737 906.38 306.577L907.726 300.593C907.938 299.651 908.122 297.526 907.968 293.741L907.717 287.583L907.72 287.366L907.722 287.265L917.552 287.399L923.713 287.149L923.955 293.09Z" fill="#C9C4B5"/>
</svg>
