<svg width="561" height="717" viewBox="0 0 561 717" fill="none" xmlns="http://www.w3.org/2000/svg">
<path d="M443.132 0.0360107L443.232 0.154175L456.086 16.1268C460.127 21.1471 463.679 25.4918 466.752 29.1801C466.836 29.2806 466.96 29.3366 467.091 29.3329C469.255 29.2661 471.423 29.2646 473.595 29.329L479.629 29.5087C481.3 29.5582 482.958 29.5008 484.602 29.3378L490.566 28.746C492.633 28.541 494.727 28.3645 496.846 28.2167L502.978 27.7889L503.405 27.7665C505.587 27.6828 508.421 28.1023 510.923 30.1024C513.461 32.1317 514.49 34.8511 514.849 37.078L514.912 37.5165L515.662 43.4462C515.958 45.7839 516.095 48.1343 516.071 50.494L516.009 56.4872C515.988 58.5758 515.932 60.6601 515.839 62.7391L515.574 68.701C515.491 70.5478 515.458 72.3992 515.473 74.2538L515.522 80.2382C515.534 81.7198 515.45 83.197 515.275 84.6682C515.233 85.0174 515.334 85.3695 515.559 85.6395C519.859 90.7891 524.21 95.9038 528.612 100.984L541.995 116.432C546.522 121.657 548.917 123.993 549.685 124.598L552.716 126.983L559.675 132.435C559.73 132.479 559.782 132.527 559.83 132.579C560.297 133.094 560.259 133.89 559.745 134.357L549.766 143.432C549.351 143.809 548.968 144.221 548.622 144.663L544.997 149.289C542.38 152.629 537.552 153.214 534.213 150.598L534.201 150.588L534.188 150.577L531.13 148.172C527.822 145.568 523.718 141.151 519.322 136.077L516.385 132.688C515.835 132.052 514.795 132.509 514.893 133.344L515.595 139.319C515.855 141.536 516.021 143.759 516.092 145.986L516.284 151.989C516.345 153.903 516.437 155.814 516.56 157.722L516.948 163.708C517.093 165.962 517.129 168.222 517.055 170.485L516.86 176.501C516.787 178.75 516.611 180.998 516.332 183.243L515.585 189.261C515.429 190.523 515.45 191.768 515.649 193.018L516.597 198.996C516.942 201.168 517.211 203.344 517.405 205.521L517.936 211.502C518.174 214.187 518.064 216.873 517.614 219.543L516.598 225.57C516.382 226.853 516.349 228.106 516.49 229.349L517.167 235.336C517.389 237.296 517.624 239.256 517.872 241.215L518.629 247.195C518.93 249.571 519.058 251.956 519.012 254.346L518.896 260.346C518.86 262.209 518.872 264.076 518.932 265.943L519.123 271.955C519.205 274.506 519.026 277.049 518.59 279.574L517.556 285.57C517.319 286.944 517.25 288.3 517.344 289.652L517.761 295.651C517.922 297.97 517.945 300.293 517.828 302.619L517.524 308.643C517.429 310.535 517.375 312.426 517.363 314.313L517.323 320.327C517.312 321.882 517.432 323.438 517.684 324.998L518.653 330.987C519.035 333.35 519.25 335.722 519.295 338.099L519.411 344.084C519.449 346.11 519.476 348.141 519.492 350.176L519.537 356.186C519.553 358.178 519.572 360.167 519.596 362.153L519.668 368.147C519.687 369.682 519.837 371.222 520.124 372.769L521.233 378.743C521.696 381.237 521.916 383.751 521.889 386.275L521.824 392.272C521.801 394.38 521.736 396.491 521.627 398.603L521.319 404.618C521.24 406.147 521.297 407.669 521.492 409.187L522.256 415.16C522.584 417.721 522.633 420.295 522.408 422.871L521.88 428.893C521.717 430.757 521.604 432.619 521.542 434.476L521.342 440.486C521.281 442.323 521.278 444.156 521.331 445.987L521.507 451.982C521.565 453.94 521.638 455.897 521.725 457.854L521.993 463.848C522.073 465.656 522.218 467.464 522.427 469.271L523.12 475.252C523.389 477.573 523.514 479.901 523.494 482.233L523.443 488.236C523.424 490.393 523.343 492.55 523.199 494.707L522.797 500.715C522.687 502.367 522.685 504.014 522.792 505.658L523.183 511.647C523.298 513.404 523.492 515.166 523.766 516.932L524.698 522.929C525.061 525.27 525.27 527.619 525.323 529.974L525.458 535.973C525.504 538.019 525.532 540.068 525.542 542.116L525.572 548.121C525.585 550.782 525.271 553.423 524.646 556.031L523.205 562.036C523.015 562.83 523.011 563.579 523.197 564.38L524.591 570.402C525.268 573.329 525.42 576.304 525.018 579.279L524.21 585.262C523.977 586.988 523.834 588.716 523.778 590.445L523.582 596.451C523.511 598.657 523.356 600.859 523.116 603.055L522.461 609.034C522.287 610.625 522.234 612.221 522.302 613.822L522.558 619.837C522.653 622.069 522.653 624.3 522.557 626.527L522.299 632.525C522.205 634.705 522.038 636.88 521.797 639.051L521.135 645.026C520.887 647.261 520.537 649.485 520.084 651.693L518.873 657.605C518.526 659.301 518.27 661.003 518.106 662.709L517.53 668.677C517.361 670.426 517.271 672.185 517.26 673.952L517.222 679.972C517.207 682.421 516.989 684.851 516.568 687.257L515.536 693.146C514.904 696.758 513.113 700.328 509.586 702.717L505.503 705.482C502.979 707.192 500.142 708.156 497.25 708.609L491.325 709.537C488.973 709.905 486.606 710.105 484.227 710.135L478.233 710.209C476.018 710.236 473.8 710.174 471.581 710.022L465.568 709.61C464.557 709.541 463.529 709.652 462.442 709.979L456.492 711.773C453.437 712.694 450.286 712.959 447.118 712.527L441.096 711.708C439.408 711.478 437.728 711.352 436.056 711.33L430.053 711.249C428.347 711.226 426.641 711.297 424.937 711.463L418.947 712.045C416.919 712.242 414.892 712.426 412.867 712.599L406.886 713.107C404.183 713.337 401.481 713.207 398.798 712.728L392.766 711.653C391.796 711.48 390.864 711.501 389.909 711.714L383.938 713.045C381.036 713.692 378.089 713.823 375.142 713.432L369.113 712.63C367.841 712.461 366.593 712.472 365.348 712.658L359.372 713.553C356.938 713.917 354.49 714.075 352.036 714.025L346.032 713.903C343.742 713.857 341.453 713.686 339.167 713.393L333.149 712.624C331.882 712.462 330.631 712.477 329.374 712.67L323.387 713.588C321.202 713.923 319.012 714.179 316.82 714.353L310.827 714.831C308.065 715.051 305.311 714.876 302.586 714.32L296.571 713.094C295.267 712.828 293.998 712.747 292.744 712.839L286.745 713.275C285.058 713.398 283.366 713.621 281.668 713.944L275.678 715.086C272.789 715.636 269.871 715.69 266.964 715.243L260.953 714.319C259.712 714.128 258.49 714.119 257.263 714.289L251.268 715.118C248.826 715.456 246.374 715.587 243.918 715.509L237.914 715.317C235.707 715.247 233.501 715.092 231.297 714.851L225.291 714.196C223.405 713.99 221.52 713.826 219.637 713.704L213.637 713.313C211.885 713.199 210.132 713.167 208.379 713.217L202.373 713.387C200.238 713.447 198.102 713.454 195.966 713.407L189.961 713.274C188.247 713.236 186.535 713.291 184.824 713.437L178.832 713.951C177.061 714.103 175.284 714.331 173.502 714.636L167.503 715.662C164.866 716.113 162.208 716.24 159.547 716.039L153.539 715.585C151.98 715.467 150.426 715.48 148.873 715.622L142.882 716.171C140.51 716.388 138.132 716.437 135.752 716.318L129.741 716.018C127.32 715.898 124.91 715.588 122.515 715.094L116.51 713.854C115.181 713.58 113.882 713.488 112.597 713.563L106.6 713.917C104.586 714.036 102.57 714.148 100.554 714.255L94.5541 714.572C92.6154 714.675 90.6762 714.8 88.7377 714.947L82.7386 715.402C79.9239 715.616 77.1231 715.399 74.3646 714.768L68.3949 713.403C67.2402 713.139 66.1159 713.071 64.9896 713.184L58.9808 713.789C56.2009 714.069 53.4285 713.942 50.6918 713.4L44.8304 712.241C40.2842 711.342 36.5248 708.392 34.9828 703.626L33.2679 698.326C32.5779 696.193 32.0303 693.972 31.6146 691.673L30.5433 685.746C30.0534 683.036 29.9463 680.298 30.223 677.557L30.8285 671.56C30.9986 669.876 31.0685 668.189 31.0385 666.497L30.931 660.473C30.8918 658.272 30.9329 656.073 31.0531 653.878L31.3812 647.872C31.5091 645.537 31.7828 643.217 32.2006 640.916L33.2758 634.993C33.6454 632.957 34.0396 630.922 34.4584 628.891L35.6761 622.984C35.9558 621.628 36.0755 620.257 36.0336 618.858L35.8519 612.803C35.7788 610.365 35.8974 607.939 36.2094 605.53L36.9799 599.575C37.2037 597.846 37.3443 596.107 37.4008 594.358L37.5951 588.342C37.6801 585.708 38.072 583.111 38.765 580.562L40.3588 574.705C40.8407 572.933 41.2571 571.156 41.6088 569.374L42.7748 563.467C43.1294 561.67 43.4238 559.866 43.6586 558.056L44.431 552.1C44.6819 550.166 44.9141 548.228 45.1283 546.287L45.7885 540.312C46.0235 538.183 46.3122 536.074 46.6547 533.988L47.6117 528.153C47.8574 526.656 47.9808 525.113 47.976 523.519L47.9574 517.446C47.9493 514.796 48.2506 512.177 48.8627 509.604L50.2572 503.744C50.6415 502.129 50.9186 500.498 51.0892 498.85L51.7084 492.868C51.8665 491.342 51.8911 489.805 51.7797 488.255L51.3451 482.216C51.1569 479.599 51.2664 476.99 51.6732 474.401L52.6097 468.442C52.8318 467.029 52.897 465.62 52.809 464.206L52.4359 458.211C52.3136 456.247 52.179 454.281 52.0316 452.315L51.5814 446.315C51.4394 444.421 51.2592 442.516 51.0404 440.604L50.349 434.56C50.0726 432.145 49.9806 429.728 50.0756 427.315L50.3109 421.317C50.4033 418.97 50.6497 416.627 51.0463 414.293L52.0648 408.293C52.2416 407.252 52.2291 406.231 52.0228 405.182L50.8441 399.192C50.2571 396.209 50.2381 393.195 50.7855 390.205L51.8861 384.192C52.0827 383.119 52.0858 382.077 51.8998 381.023L50.8422 375.036C50.4146 372.614 50.1866 370.178 50.1615 367.733L50.101 361.733C50.0797 359.657 50.0878 357.579 50.1263 355.501L50.2377 349.498C50.2821 347.104 50.5029 344.713 50.8959 342.33L51.889 336.307C52.1038 335.004 52.1384 333.73 52.0013 332.465L51.3519 326.476C51.0938 324.095 51.01 321.706 51.1 319.314L51.3265 313.305C51.3798 311.889 51.2787 310.473 51.0189 309.049L49.9291 303.074C49.5207 300.835 49.2197 298.589 49.0277 296.337L48.517 290.349C48.3379 288.248 48.2006 286.145 48.1049 284.042L47.8324 278.049C47.711 275.381 47.9236 272.722 48.4554 270.086L49.6742 264.048C49.8907 262.975 49.904 261.957 49.7347 260.946L48.7347 254.974C48.3571 252.719 48.0942 250.456 47.9467 248.186L47.557 242.191C47.4191 240.07 47.3294 237.948 47.2894 235.824L47.1771 229.822C47.1376 227.722 47.1371 225.62 47.1761 223.518L47.2875 217.514C47.319 215.818 47.2537 214.126 47.0912 212.438L46.516 206.461C46.337 204.603 46.1097 202.742 45.8353 200.879L44.9545 194.893C44.5982 192.474 44.4379 190.044 44.476 187.607L44.5697 181.601C44.6036 179.433 44.7057 177.262 44.8754 175.092L45.3461 169.075C45.448 167.772 45.3793 166.474 45.1361 165.165L44.0258 159.189C43.5011 156.366 43.4281 153.515 43.808 150.668L44.6127 144.64C44.8445 142.903 44.9836 141.178 45.0316 139.465L45.1996 133.474C45.2232 132.629 44.1738 132.223 43.6204 132.861L40.8353 136.077C36.4394 141.151 32.3352 145.568 29.0267 148.172L25.9691 150.577L25.9564 150.588L25.9437 150.598C22.6048 153.214 17.7767 152.629 15.1603 149.289L11.5351 144.663C11.189 144.221 10.8063 143.809 10.3912 143.432L0.411908 134.357C-0.102329 133.89 -0.140179 133.094 0.327362 132.579C0.374905 132.527 0.426769 132.479 0.482404 132.435L7.4408 126.983L10.472 124.598C11.2395 123.994 13.6352 121.657 18.1615 116.432L31.5453 100.984C34.9914 97.0067 38.4047 93.0063 41.7881 88.9861C42.5707 88.0562 43.0033 86.8822 43.014 85.6669C43.032 83.6201 43.0688 81.5696 43.1244 79.5165L43.2875 73.5028C43.3292 71.9604 43.2382 70.4151 43.0121 68.8632L42.1371 62.8583C41.6448 59.4804 42.097 55.4208 42.8851 51.2889C43.5081 48.0232 46.6604 45.8807 49.9262 46.5035L50.8203 46.674C51.1668 46.7401 51.5187 46.7736 51.8715 46.7743L55.8852 46.7771C56.6407 46.7777 57.1878 46.0566 56.9839 45.3292C56.8139 44.7229 57.1677 44.0935 57.774 43.9236L58.5609 43.703L58.6088 43.6893L58.6576 43.6766L59.6498 43.411L59.9515 43.3348C61.494 42.9688 63.4882 42.8167 65.2455 42.7157L71.2416 42.371C73.7614 42.2262 76.2808 42.3276 78.7914 42.6718C80.402 42.8922 82.0171 42.3 83.1034 41.0905L85.0179 38.9589C89.2838 34.2072 95.6037 26.6476 104.071 16.1268L116.925 0.154175L117.025 0.0360107C117.06 -0.00656862 117.124 -0.0121783 117.166 0.0234915L132.29 12.7177L132.41 12.8141C136.712 16.2769 137.393 22.5714 133.93 26.8737L127.442 34.9364C126.202 36.4774 125 37.9647 123.836 39.398C122.904 40.5464 123.724 42.2456 125.201 42.1522L131.195 41.7723C133.384 41.6338 135.575 41.5747 137.767 41.5936L143.767 41.6454C146.104 41.6656 148.44 41.8328 150.771 42.1464L156.785 42.955C158.242 43.151 159.687 43.1938 161.124 43.0858L167.12 42.6346C169.345 42.4675 171.572 42.3956 173.799 42.4178L179.801 42.4774C181.583 42.4952 183.363 42.4398 185.141 42.3114L191.13 41.8788C193.494 41.708 195.863 41.7008 198.232 41.8563L204.244 42.2509C206.207 42.3798 208.172 42.494 210.135 42.5936L216.144 42.8983C217.287 42.9563 218.446 42.8358 219.647 42.5126L225.612 40.9061C228.512 40.1251 231.48 39.8691 234.468 40.1639L240.485 40.7577C242.016 40.9088 243.539 40.9219 245.056 40.7987L251.048 40.3114C253.519 40.1108 255.993 40.1306 258.464 40.369L264.474 40.9491C265.729 41.0702 266.98 41.0162 268.246 40.7821L274.228 39.6766C277.146 39.1371 280.09 39.1156 283.016 39.6093L289.039 40.6259C290.298 40.8382 291.527 40.8651 292.75 40.7167L298.74 39.9891C300.855 39.7322 302.972 39.5238 305.086 39.3641L311.067 38.913C313.327 38.7423 315.594 38.6849 317.866 38.7411L323.884 38.8905C325.552 38.9318 327.213 38.867 328.869 38.6971L334.85 38.0839C337.406 37.8217 339.97 37.8306 342.532 38.1083L348.556 38.7616C350.023 38.9207 351.476 38.9284 352.92 38.787L358.906 38.201C360.98 37.998 363.056 37.8258 365.133 37.6854L371.124 37.2811C373.179 37.1422 375.235 37.0253 377.291 36.9315L383.286 36.6591C384.808 36.5896 386.329 36.3849 387.853 36.0419L393.781 34.7069C396.303 34.1389 398.858 33.8404 401.434 33.8163L407.449 33.7596C409.572 33.7398 411.696 33.7672 413.822 33.8417L419.843 34.0536C421.344 34.1062 422.833 34.0167 424.316 33.785L430.269 32.8544C430.572 32.807 430.713 32.4492 430.52 32.21L423.957 24.0543C421.748 21.3091 422.182 17.2929 424.927 15.0835L427.867 12.7177L442.991 0.0234912C443.033 -0.0121786 443.097 -0.00656862 443.132 0.0360107ZM437.966 48.0946C436.22 48.2022 434.478 48.3913 432.739 48.663L426.786 49.5927C424.3 49.9809 421.796 50.131 419.283 50.0428L413.261 49.8319C411.372 49.7657 409.484 49.742 407.598 49.7596L401.584 49.8153C400.152 49.8287 398.724 49.9945 397.295 50.3163L391.368 51.6512C388.94 52.1979 386.487 52.5297 384.014 52.6425L378.02 52.9149C376.081 53.0034 374.141 53.114 372.203 53.245L366.212 53.6493C364.296 53.7788 362.379 53.9374 360.464 54.1249L354.479 54.7108C351.934 54.9599 349.381 54.9453 346.831 54.6688L340.807 54.0155C339.352 53.8578 337.913 53.8532 336.483 53.9999L330.501 54.6141C328.171 54.8532 325.832 54.9437 323.488 54.8856L317.47 54.7362C315.73 54.6931 313.997 54.7368 312.272 54.8671L306.291 55.3192C304.42 55.4605 302.546 55.645 300.669 55.8729L294.679 56.6005C291.91 56.9367 289.134 56.8673 286.377 56.4022L280.354 55.3866C279.265 55.203 278.207 55.2113 277.137 55.4091L271.156 56.5155C268.435 57.0187 265.687 57.1403 262.937 56.8749L256.928 56.2948C255.394 56.1468 253.867 56.1359 252.343 56.2596L246.351 56.746C243.874 56.9471 241.392 56.9242 238.913 56.6796L232.897 56.0858C231.875 55.985 230.848 56.0666 229.772 56.3563L223.807 57.9618C221.031 58.7092 218.197 59.0229 215.334 58.8778L209.325 58.5731C207.282 58.4695 205.238 58.3508 203.195 58.2167L197.184 57.8221C195.546 57.7146 193.913 57.7201 192.284 57.8378L186.293 58.2704C184.079 58.4304 181.861 58.4986 179.641 58.4764L173.639 58.4169C171.866 58.3992 170.092 58.4565 168.32 58.5897L162.324 59.0409C159.765 59.2332 157.204 59.1555 154.653 58.8124L148.638 58.0038C146.96 57.7782 145.291 57.6588 143.628 57.6444L137.628 57.5927C135.82 57.5771 134.012 57.6267 132.205 57.7411L126.211 58.12C123.988 58.2607 121.761 58.3068 119.534 58.2587L113.53 58.1298C111.838 58.0932 110.147 58.1544 108.456 58.3143C108.104 58.3476 107.777 58.5134 107.541 58.7777C107.474 58.8523 107.408 58.9264 107.342 58.9999L93.7045 74.1903C89.2786 79.1202 84.9437 84.1261 80.7006 89.2079L67.6254 104.867C65.7136 107.157 63.7913 109.439 61.8598 111.715C61.187 112.508 60.8836 113.55 61.0277 114.58C61.3645 116.991 61.5091 119.414 61.4603 121.844L61.3392 127.856C61.2986 129.881 61.2502 131.904 61.1937 133.922L61.0258 139.912C60.9619 142.192 60.7766 144.474 60.472 146.756L59.6674 152.784C59.511 153.956 59.5407 155.107 59.7562 156.266L60.8666 162.241C61.3635 164.915 61.5089 167.615 61.2972 170.322L60.8265 176.339C60.6827 178.179 60.5964 180.017 60.5677 181.851L60.474 187.857C60.4496 189.424 60.5522 190.992 60.7836 192.562L61.6654 198.548C61.9785 200.674 62.237 202.801 62.4418 204.928L63.0179 210.904C63.2391 213.201 63.3284 215.504 63.2855 217.811L63.1732 223.816C63.1379 225.718 63.1384 227.62 63.1742 229.52L63.2875 235.523C63.3228 237.401 63.4009 239.278 63.5228 241.153L63.9125 247.148C64.0248 248.876 64.2257 250.603 64.515 252.33L65.515 258.303C66.0125 261.273 65.9537 264.26 65.3578 267.213L64.139 273.252C63.8586 274.641 63.7554 275.993 63.8158 277.321L64.0883 283.314C64.1744 285.206 64.2982 287.099 64.4594 288.99L64.9701 294.978C65.1184 296.718 65.3513 298.459 65.6693 300.203L66.7592 306.178C67.2258 308.736 67.4123 311.316 67.3148 313.906L67.0883 319.916C67.0275 321.53 67.0847 323.142 67.2592 324.752L67.9076 330.741C68.203 333.467 68.1237 336.198 67.6761 338.911L66.682 344.934C66.4128 346.567 66.2646 348.186 66.2347 349.794L66.1234 355.798C66.0877 357.722 66.0803 359.646 66.1 361.569L66.1615 367.569C66.1775 369.124 66.322 370.686 66.599 372.255L67.6556 378.242C68.1742 381.18 68.1627 384.139 67.6254 387.074L66.5238 393.087C66.3376 394.104 66.3446 395.092 66.5433 396.102L67.722 402.094C68.3015 405.039 68.342 408.015 67.8392 410.974L66.8197 416.974C66.5368 418.639 66.3642 420.297 66.2992 421.947L66.0629 427.944C66.0005 429.529 66.0598 431.127 66.2445 432.741L66.9369 438.785C67.1792 440.902 67.3787 443.014 67.5365 445.119L67.9867 451.119C68.1391 453.152 68.2781 455.185 68.4047 457.217L68.7787 463.211C68.9394 465.792 68.8175 468.368 68.4154 470.927L67.4789 476.886C67.2615 478.269 67.2028 479.659 67.3041 481.068L67.7386 487.107C67.9166 489.583 67.8784 492.055 67.6234 494.516L67.0043 500.499C66.7618 502.839 66.3677 505.157 65.8226 507.448L64.4281 513.307C64.1109 514.641 63.9531 516 63.9574 517.397L63.976 523.47C63.9835 525.924 63.7935 528.351 63.4008 530.744L62.4427 536.58C62.1467 538.384 61.8964 540.213 61.6918 542.067L61.0316 548.043C60.8062 550.085 60.5622 552.124 60.2982 554.159L59.5258 560.114C59.2457 562.273 58.8944 564.424 58.472 566.564L57.306 572.472C56.8807 574.627 56.3773 576.771 55.7972 578.904L54.2045 584.762C53.8356 586.118 53.6308 587.48 53.5863 588.858L53.3929 594.875C53.3199 597.137 53.1382 599.389 52.848 601.63L52.0765 607.585C51.8744 609.146 51.7961 610.724 51.8441 612.323L52.0258 618.379C52.1049 621.017 51.8794 623.634 51.347 626.216L50.1283 632.123C49.7351 634.03 49.365 635.94 49.0179 637.851L47.9427 643.773C47.6439 645.42 47.4492 647.078 47.3578 648.747L47.0287 654.753C46.9297 656.561 46.8958 658.373 46.9281 660.187L47.0355 666.212C47.0769 668.536 46.981 670.855 46.7474 673.168L46.142 679.165C46.0152 680.421 46.0632 681.66 46.2875 682.9L47.3597 688.827C47.6583 690.479 48.0386 692.001 48.4916 693.401C49.1854 695.547 50.9869 697.148 53.199 697.586L53.7963 697.704C54.9668 697.936 56.1524 697.993 57.3783 697.87L63.3881 697.265C66.2677 696.975 69.1375 697.16 71.9623 697.807L77.932 699.172C79.1529 699.451 80.3426 699.538 81.5267 699.448L87.5258 698.993C89.586 698.837 91.6474 698.704 93.7084 698.595L99.7084 698.277C101.692 698.172 103.677 698.061 105.66 697.944L111.656 697.591C114.368 697.431 117.07 697.633 119.744 698.184L125.748 699.424C127.356 699.755 128.952 699.959 130.538 700.038L136.55 700.339C138.178 700.42 139.801 700.386 141.422 700.237L147.413 699.688C149.854 699.465 152.3 699.446 154.745 699.631L160.753 700.085C162.097 700.186 163.444 700.123 164.806 699.891L170.806 698.865C173.023 698.486 175.244 698.2 177.466 698.01L183.456 697.496C185.739 697.3 188.026 697.228 190.315 697.278L196.319 697.41C198.186 697.451 200.054 697.446 201.921 697.393L207.927 697.224C210.178 697.16 212.428 697.2 214.676 697.347L220.676 697.737C222.793 697.875 224.91 698.059 227.027 698.29L233.033 698.945C234.832 699.141 236.629 699.268 238.424 699.325L244.427 699.516C245.973 699.566 247.523 699.484 249.077 699.269L255.071 698.44C257.84 698.057 260.62 698.08 263.385 698.505L269.396 699.43C270.496 699.599 271.578 699.579 272.682 699.369L278.673 698.227C280.968 697.79 283.273 697.486 285.583 697.317L291.581 696.881C294.326 696.681 297.062 696.864 299.769 697.416L305.785 698.643C307.07 698.906 308.32 698.98 309.554 698.882L315.548 698.404C317.351 698.26 319.156 698.05 320.961 697.773L326.949 696.854C329.683 696.435 332.435 696.402 335.18 696.753L341.199 697.523C342.924 697.744 344.644 697.871 346.357 697.906L352.361 698.028C353.909 698.06 355.455 697.96 357.004 697.728L362.981 696.834C365.719 696.424 368.473 696.404 371.221 696.769L377.25 697.571C378.323 697.714 379.378 697.668 380.456 697.428L386.427 696.097C389.452 695.422 392.522 695.357 395.574 695.901L401.606 696.977C402.944 697.216 404.247 697.274 405.531 697.165L411.51 696.656C413.471 696.489 415.435 696.311 417.4 696.12L423.39 695.538C425.679 695.316 427.972 695.22 430.268 695.251L436.271 695.331C438.601 695.362 440.93 695.538 443.255 695.854L449.276 696.674C450.121 696.789 450.962 696.729 451.873 696.454L457.824 694.66C460.703 693.792 463.664 693.442 466.662 693.647L472.676 694.059C474.466 694.182 476.252 694.233 478.033 694.211L484.027 694.136C485.643 694.115 487.25 693.981 488.849 693.73L494.775 692.802C495.832 692.636 496.332 692.369 496.53 692.235C498.649 690.799 500.095 688.564 500.537 686.042L500.808 684.496C501.074 682.975 501.213 681.435 501.223 679.872L501.26 673.851C501.274 671.606 501.389 669.368 501.604 667.14L502.18 661.172C502.399 658.9 502.739 656.64 503.199 654.395L504.41 648.483C504.764 646.751 505.038 645.011 505.232 643.263L505.895 637.287C506.096 635.474 506.236 633.657 506.314 631.838L506.572 625.84C506.648 624.069 506.648 622.294 506.573 620.516L506.317 614.501C506.214 612.093 506.294 609.69 506.556 607.295L507.21 601.315C507.406 599.525 507.533 597.731 507.591 595.933L507.786 589.928C507.859 587.653 508.049 585.384 508.354 583.122L509.161 577.139C509.298 576.126 509.254 575.098 509.002 574.01L507.609 567.987C506.865 564.773 506.877 561.512 507.647 558.304L509.087 552.299C509.422 550.904 509.578 549.541 509.572 548.199L509.542 542.194C509.533 540.24 509.506 538.286 509.462 536.333L509.328 530.333C509.291 528.688 509.144 527.039 508.887 525.384L507.955 519.389C507.609 517.158 507.363 514.925 507.217 512.689L506.827 506.7C506.673 504.352 506.675 502 506.832 499.647L507.234 493.64C507.357 491.792 507.427 489.945 507.443 488.099L507.495 482.097C507.509 480.427 507.42 478.76 507.227 477.094L506.534 471.112C506.281 468.932 506.106 466.748 506.008 464.561L505.741 458.567C505.65 456.529 505.575 454.491 505.515 452.452L505.338 446.457C505.275 444.292 505.28 442.123 505.352 439.954L505.551 433.945C505.623 431.797 505.752 429.647 505.941 427.497L506.469 421.474C506.595 420.036 506.567 418.61 506.385 417.19L505.621 411.218C505.306 408.754 505.212 406.278 505.339 403.798L505.648 397.783C505.745 395.886 505.804 393.991 505.825 392.1L505.89 386.102C505.906 384.628 505.777 383.15 505.501 381.662L504.393 375.687C503.941 373.253 503.699 370.802 503.669 368.341L503.597 362.346C503.573 360.336 503.553 358.323 503.537 356.307L503.493 350.297C503.478 348.324 503.451 346.356 503.413 344.391L503.298 338.405C503.267 336.791 503.121 335.17 502.858 333.541L501.889 327.553C501.496 325.121 501.306 322.674 501.323 320.221L501.363 314.207C501.377 312.086 501.437 309.962 501.544 307.839L501.847 301.815C501.932 300.125 501.917 298.441 501.8 296.761L501.382 290.763C501.198 288.116 501.336 285.473 501.788 282.849L502.823 276.853C503.076 275.382 503.178 273.921 503.131 272.465L502.94 266.453C502.871 264.313 502.858 262.175 502.899 260.038L503.015 254.037C503.046 252.426 502.96 250.816 502.756 249.205L501.998 243.224C501.742 241.195 501.499 239.165 501.269 237.135L500.591 231.148C500.28 228.4 500.36 225.646 500.821 222.911L501.836 216.884C502.063 215.536 502.115 214.219 501.999 212.918L501.468 206.937C501.307 205.128 501.083 203.317 500.795 201.505L499.846 195.526C499.412 192.791 499.366 190.038 499.707 187.289L500.454 181.272C500.674 179.506 500.811 177.742 500.869 175.981L501.064 169.966C501.121 168.218 501.093 166.476 500.981 164.74L500.594 158.754C500.46 156.672 500.359 154.586 500.292 152.499L500.1 146.497C500.043 144.724 499.912 142.953 499.704 141.186L499.002 135.21C498.766 133.195 498.537 131.178 498.318 129.159L497.666 123.17C497.36 120.354 497.488 117.539 498.036 114.753C498.373 113.035 497.909 111.258 496.779 109.922C495.358 108.241 493.942 106.556 492.532 104.867L479.456 89.2079C475.213 84.1261 470.878 79.1203 466.453 74.1903L452.815 58.9999C450.971 56.9455 448.849 54.496 446.454 51.6615C444.396 49.2256 441.314 47.8876 438.131 48.0844L437.966 48.0946ZM325.537 376.008L325.562 376.104C326.432 379.611 324.843 383.266 321.685 385.022L316.384 387.971C314.825 388.838 313.658 389.586 312.821 390.209C312.407 390.516 312.105 390.77 311.894 390.965C311.79 391.061 311.716 391.137 311.664 391.191C311.615 391.243 311.593 391.271 311.591 391.273L309.492 393.937C308.656 394.996 308.32 396.365 308.569 397.691C308.81 398.973 309.575 400.095 310.679 400.787L313.622 402.633C314.92 403.446 316.273 404.135 317.686 404.703L323.249 406.939C325.248 407.743 327.186 408.59 329.062 409.481L334.225 411.934C336.071 412.812 338.622 414.537 339.885 417.759C341.203 421.12 340.399 424.233 339.41 426.272L337.086 431.061C335.457 434.421 332.82 436.854 329.73 438.47L324.32 441.299C321.247 442.906 317.899 443.637 314.428 443.438L311.808 443.287C311.605 443.275 311.424 443.418 311.388 443.618C311.349 443.838 311.139 443.983 310.92 443.944L304.835 442.848C304.817 442.846 304.798 442.845 304.78 442.843C304.728 442.837 304.342 442.796 303.897 442.7L303.302 442.572C299.032 441.803 296.193 437.718 296.962 433.447L296.988 433.307L297.005 433.208L297.337 431.368C298.083 427.223 302.503 424.861 306.363 426.545C307.055 426.847 307.793 427.027 308.547 427.073C308.78 427.087 309.031 427.103 309.302 427.118L315.344 427.465C315.901 427.497 316.371 427.4 316.905 427.121L322.315 424.292C322.444 424.224 322.431 424.045 322.3 423.982L322.196 423.932C320.63 423.189 318.992 422.472 317.283 421.785L311.719 419.549C309.423 418.626 307.223 417.505 305.123 416.189L300.029 412.995C296.575 410.83 294.134 407.517 293.346 403.318L292.303 397.763C291.493 393.446 292.689 389.411 295.248 386.162L299.023 381.371C301.146 378.677 304.377 376.407 307.811 374.437C308.251 374.186 308.474 373.675 308.352 373.183C308.203 372.582 308.57 371.974 309.171 371.825L315.847 370.169C320.135 369.105 324.474 371.719 325.537 376.008ZM197.077 281.211C201.49 281.416 204.964 285.164 204.758 289.577L204.753 289.677L204.744 289.903L204.107 296.052C203.708 299.903 203.615 302.369 203.689 303.722L204.019 309.737C204.134 311.836 204.212 313.935 204.253 316.033L204.371 322.047C204.413 324.178 204.404 326.307 204.344 328.434L204.175 334.435C204.112 336.692 203.94 338.943 203.661 341.187L202.915 347.161C202.704 348.853 202.59 350.548 202.572 352.247L202.507 358.253C202.478 360.979 202.082 363.669 201.336 366.307L199.662 372.229C199.457 372.956 199.43 373.651 199.59 374.427L200.849 380.5C201.454 383.42 201.552 386.376 201.112 389.322L200.221 395.283C199.931 397.226 199.657 399.17 199.4 401.115L198.61 407.083C198.376 408.85 198.217 410.62 198.133 412.392L197.85 418.388C197.745 420.61 197.546 422.827 197.254 425.037L196.699 429.247C196.626 429.797 196.816 430.35 197.212 430.739C197.573 431.093 197.765 431.585 197.739 432.09L197.594 434.893L197.589 434.993C197.362 439.405 193.601 442.798 189.189 442.571L185.104 442.36C182.947 442.249 181.289 440.411 181.4 438.254C181.438 437.528 181.252 436.813 180.985 436.137C180.639 435.26 180.523 434.558 180.48 434.296C180.344 433.48 180.327 432.738 180.331 432.228C180.34 431.179 180.458 430.023 180.605 428.911L181.392 422.943C181.625 421.176 181.784 419.405 181.868 417.631L182.152 411.636C182.257 409.412 182.456 407.194 182.748 404.983L183.538 399.016C183.808 396.982 184.093 394.95 184.397 392.919L185.287 386.959C185.441 385.932 185.416 384.875 185.182 383.747L183.923 377.675C183.245 374.402 183.356 371.098 184.266 367.877L185.94 361.955C186.31 360.644 186.494 359.359 186.508 358.081L186.573 352.075C186.597 349.77 186.753 347.472 187.038 345.182L187.784 339.208C188 337.47 188.133 335.729 188.182 333.985L188.35 327.985C188.403 326.112 188.411 324.237 188.374 322.359L188.256 316.346C188.219 314.436 188.148 312.525 188.043 310.614L187.713 304.599C187.567 301.941 187.773 298.451 188.192 294.404L188.782 288.709C188.984 284.364 192.732 281.009 197.077 281.211ZM388.692 357.849C391.031 357.743 393.753 358.276 396.14 360.172C398.42 361.983 399.538 364.364 400.084 366.372L400.187 366.768L401.652 372.824C402.492 376.298 402.345 379.814 401.238 383.203L399.287 389.173C398.196 392.514 396.289 395.423 393.614 397.735L388.961 401.757C386.621 403.779 383.955 405.299 381 406.239L375.343 408.038C373.531 408.614 371.118 409.238 368.195 409.911C367.002 410.186 366.06 411.082 365.628 412.228L365.355 412.954C364.308 415.732 364.549 418.831 366.013 421.413L366.297 421.915C366.335 421.981 366.362 422.019 366.376 422.036C366.39 422.052 366.398 422.06 366.403 422.064C366.407 422.068 366.42 422.079 366.448 422.096C366.476 422.113 366.531 422.143 366.62 422.179L372.275 424.443C372.598 424.573 372.711 424.553 372.879 424.508L378.583 422.956C379.142 422.804 379.264 422.646 379.291 422.614L381.008 420.663L384.392 416.673C386.977 413.625 391.414 412.951 394.786 415.095L394.87 415.148C398.599 417.519 399.7 422.463 397.33 426.191L393.372 432.417C393.187 432.707 392.802 432.793 392.511 432.609C392.251 432.444 391.91 432.492 391.707 432.723L391.3 433.186C388.98 435.822 386.024 437.514 382.782 438.395L377.078 439.947C373.445 440.935 369.771 440.676 366.325 439.296L360.67 437.031C357.127 435.612 354.273 433.149 352.377 429.805L349.416 424.581C347.229 420.722 346.955 416.41 348.492 412.331L349.636 409.293C349.967 408.416 349.675 407.427 348.921 406.87C347.991 406.182 347.794 404.871 348.482 403.94L350.531 401.17C351.183 400.288 351.559 399.232 351.611 398.136L351.663 397.01C351.796 394.2 352.33 391.458 353.268 388.809L355.291 383.099C356.315 380.207 357.868 377.594 359.915 375.31L363.972 370.785C365.542 369.034 367.184 367.419 368.9 365.952L373.181 362.292C375.877 359.988 379.106 358.633 382.651 358.34L388.23 357.879L388.692 357.849ZM266.927 361.239C269.053 361.203 271.53 361.617 273.84 363.068C276.071 364.47 277.531 366.456 278.392 368.53L278.556 368.946L280.482 374.082C281.186 375.96 281.835 377.881 282.428 379.842L284.062 385.241C285.029 388.438 285.094 391.712 284.377 394.918L283.075 400.75C282.606 402.847 282.07 404.952 281.469 407.063L279.789 412.967C278.719 416.727 276.477 419.845 273.262 422.061L268.197 425.553C266.262 426.886 264.302 428.077 262.319 429.11L257.317 431.718C253.243 433.841 248.682 433.771 244.669 431.421L239.857 428.601C236.728 426.769 234.397 424.068 233.026 420.727L230.892 415.527C229.594 412.365 229.26 409.033 229.798 405.712L230.738 399.912C231.22 396.935 232.268 394.138 233.841 391.568L236.958 386.476C238.051 384.691 239.176 382.931 240.333 381.197L243.631 376.254C244.986 374.223 247.04 371.615 249.621 368.547C249.916 368.197 250.115 367.781 250.256 367.347C251.336 364.027 254.114 362.688 254.707 362.412C255.779 361.914 256.777 361.713 257.299 361.622C258.449 361.421 259.718 361.36 260.845 361.341L266.927 361.239ZM478.924 286.771C479.363 290.802 479.608 294.185 479.568 296.702L479.471 302.707C479.444 304.385 479.518 306.063 479.695 307.743L480.325 313.74C480.594 316.302 480.591 318.869 480.316 321.432L479.671 327.44C479.451 329.492 479.213 331.54 478.956 333.584L478.203 339.571C478.004 341.157 477.93 342.741 477.978 344.324L478.161 350.325C478.237 352.842 478.071 355.348 477.663 357.836L476.689 363.78C476.443 365.283 476.335 366.791 476.365 368.31L476.482 374.327C476.528 376.691 476.415 379.048 476.143 381.392L475.451 387.349C475.21 389.419 474.936 391.486 474.63 393.548L473.749 399.482C473.573 400.67 473.568 401.901 473.754 403.201L474.634 409.329C474.763 410.225 475.071 412.356 474.587 414.406C474.415 415.138 473.365 419.245 468.831 420.577C464.667 421.8 461.652 419.375 461.205 419.021L459.246 417.468C459.158 417.397 459.071 417.326 458.987 417.254C458.583 416.911 458.026 416.789 457.536 416.989L454.727 418.133C453.337 418.699 452.033 419.386 450.807 420.196L445.799 423.505C443.032 425.333 439.913 426.438 436.542 426.641L430.895 426.979C426.572 427.239 422.63 425.615 419.744 422.392L415.965 418.174C413.444 415.359 412.082 411.922 411.91 408.198L411.642 402.403C411.536 400.101 411.588 397.782 411.796 395.451L412.327 389.503C412.585 386.609 413.326 383.821 414.525 381.172L417.032 375.632C418.21 373.028 419.767 370.653 421.683 368.531L425.777 363.999C428.374 361.123 431.782 359.261 435.77 358.831L441.504 358.213L441.944 358.172C444.156 358.006 446.566 358.381 448.831 359.676C451.205 361.033 452.764 363.026 453.756 364.978L456.547 370.471C457.33 372.01 458.198 373.485 459.15 374.895L459.23 375.014C459.619 375.592 460.498 375.335 460.485 374.639L460.368 368.623C460.319 366.132 460.497 363.652 460.9 361.192L461.874 355.248C462.116 353.773 462.214 352.297 462.168 350.813L461.985 344.811C461.911 342.394 462.026 339.981 462.328 337.576L463.081 331.588C463.326 329.641 463.554 327.69 463.763 325.735L464.407 319.725C464.561 318.282 464.563 316.847 464.412 315.411L463.783 309.415C463.539 307.097 463.436 304.775 463.473 302.45L463.57 296.445C463.594 294.959 463.44 292.384 463.018 288.503L462.329 282.174C462.327 281.9 462.547 281.676 462.821 281.673L471.328 281.594L472.344 281.483C475.622 281.126 478.568 283.494 478.924 286.771ZM150.156 292.779C150.312 292.972 150.493 293.144 150.694 293.29L157.079 297.942C157.123 297.975 157.133 298.037 157.101 298.082C156.691 298.645 156.208 299.152 155.666 299.591L151.049 303.324C148.013 305.779 145.945 307.558 144.72 308.724L140.326 312.907C139.729 313.475 139.281 314.134 138.956 314.971L136.726 320.722C135.595 323.636 133.924 326.243 131.745 328.486L127.455 332.903C126.626 333.757 125.991 334.677 125.517 335.681L122.942 341.13C122.234 342.628 121.624 344.17 121.116 345.758L119.27 351.517C118.49 353.951 117.472 356.284 116.22 358.507L113.263 363.757C112.633 364.875 112.171 366.043 111.869 367.276L110.438 373.105C110.062 374.636 109.819 376.152 109.702 377.658L109.245 383.506C109.082 385.604 108.857 387.731 108.572 389.884L107.77 395.931C107.76 396.008 107.759 396.056 107.759 396.077C107.759 396.078 107.759 396.078 107.76 396.078C107.76 396.078 107.76 396.078 107.76 396.078C107.767 396.091 107.778 396.116 107.799 396.15L111.006 401.212C111.307 401.687 111.624 401.959 112.046 402.169L117.318 404.787C118.908 405.577 120.522 406.309 122.161 406.985L127.592 409.226C128.206 409.48 128.829 409.583 129.569 409.521L135.524 409.024C136.67 408.929 137.72 408.665 138.709 408.241L144.096 405.933C145.076 405.514 145.529 405.125 145.723 404.917L149.015 401.374C149.645 400.695 150.376 399.952 151.132 399.33C151.492 399.034 152.102 398.56 152.887 398.141L152.902 398.134C153.353 397.893 155.394 396.802 158.115 397.21L158.383 397.255L158.798 397.331L158.89 397.348L158.982 397.366C159.385 397.45 159.644 397.845 159.56 398.249L158.315 404.234C158.229 404.647 158.184 405.067 158.182 405.488L158.135 412.261C158.133 412.657 158.216 413.081 158.118 413.464C157.959 414.084 156.356 416.9 155.868 417.313C154.215 418.714 152.353 419.802 150.396 420.641L145.01 422.948C142.41 424.062 139.679 424.733 136.855 424.969L130.9 425.466C127.67 425.735 124.496 425.258 121.49 424.017L116.058 421.776C114.075 420.958 112.122 420.071 110.199 419.116L104.928 416.498C101.837 414.962 99.3282 412.674 97.4916 409.775L94.2845 404.715C92.1915 401.412 91.3996 397.666 91.9086 393.827L92.7103 387.78C92.9594 385.902 93.1541 384.062 93.2943 382.263L93.7494 376.415C93.9358 374.023 94.3219 371.647 94.8998 369.292L96.3295 363.463C96.9803 360.811 97.9817 358.285 99.3226 355.904L102.28 350.655C102.999 349.379 103.583 348.04 104.034 346.634L105.879 340.874C106.601 338.622 107.467 336.427 108.476 334.293L111.052 328.843C112.295 326.214 113.949 323.844 115.979 321.755L120.269 317.339C120.95 316.638 121.453 315.855 121.809 314.936L124.038 309.185C125.201 306.189 126.962 303.537 129.295 301.316L133.69 297.134C135.395 295.511 137.87 293.406 140.989 290.884C143.538 288.822 147.276 289.217 149.337 291.767L150.156 292.779ZM264.156 377.288C263.525 377.298 262.929 377.581 262.523 378.064L261.865 378.848C259.369 381.813 257.784 383.869 256.941 385.134L253.644 390.077C252.603 391.638 251.589 393.223 250.604 394.832L247.486 399.923C246.981 400.747 246.676 401.58 246.532 402.47L245.593 408.269C245.505 408.815 245.569 409.149 245.694 409.453L247.828 414.652C247.831 414.662 247.835 414.671 247.839 414.679C247.86 414.728 247.897 414.769 247.943 414.796C250.059 416.035 252.664 416.099 254.84 414.966L254.924 414.922C256.276 414.217 257.673 413.374 259.116 412.38L264.181 408.888C264.253 408.838 264.293 408.802 264.311 408.785C264.327 408.77 264.333 408.762 264.333 408.761C264.334 408.759 264.339 408.752 264.347 408.734C264.357 408.714 264.378 408.668 264.401 408.587L266.08 402.682C266.6 400.858 267.059 399.051 267.459 397.261L268.763 391.429C268.915 390.747 268.869 390.278 268.747 389.875L267.114 384.474C266.618 382.836 266.08 381.244 265.5 379.699L264.747 377.69C264.655 377.444 264.418 377.283 264.156 377.288ZM440.353 374.43L437.654 374.72C437.653 374.721 437.652 374.721 437.652 374.722C437.652 374.722 437.652 374.723 437.651 374.723L433.558 379.255C432.746 380.154 432.102 381.138 431.609 382.227L429.102 387.767C428.63 388.811 428.359 389.853 428.263 390.925L427.733 396.873C427.587 398.507 427.552 400.103 427.624 401.664L427.892 407.46C427.894 407.495 427.909 407.528 427.933 407.554L429.144 408.907C430.298 410.195 431.978 410.886 433.704 410.782L435.582 410.669C435.976 410.645 436.409 410.533 436.98 410.156L441.987 406.848C444.099 405.452 446.337 404.273 448.691 403.314L449.546 402.966C451.607 402.127 452.765 399.913 452.201 397.761L450.668 391.912C450.388 390.843 449.94 389.851 449.301 388.905L445.887 383.846C444.563 381.884 443.362 379.841 442.284 377.72L440.71 374.622C440.643 374.49 440.5 374.413 440.353 374.43ZM383.968 374.286C383.834 374.297 383.78 374.32 383.767 374.325C383.753 374.331 383.692 374.356 383.578 374.454L379.296 378.114C378.158 379.087 377.02 380.2 375.885 381.466L371.828 385.991C371.172 386.724 370.698 387.524 370.373 388.439L369.286 391.508C369.014 392.276 369.717 393.038 370.494 392.791L376.151 390.991C376.967 390.732 377.737 390.31 378.498 389.652L383.15 385.631C383.576 385.263 383.87 384.841 384.078 384.203L386.029 378.234C386.222 377.644 386.236 377.151 386.1 376.587L385.877 375.664C385.667 374.797 384.857 374.212 383.968 374.286ZM58.6019 54.287C57.8861 58.0395 57.878 59.9254 57.9691 60.5507L58.8451 66.5555C58.9411 67.2146 59.7808 67.4692 60.2112 66.9609C62.3154 64.4753 64.4408 62.0073 66.5869 59.5567C66.8925 59.2077 66.6265 58.6625 66.1635 58.6893C65.242 58.7423 64.558 58.798 64.0795 58.8505C63.8574 58.8748 63.712 58.8952 63.6302 58.9081L62.8431 59.119L60.9989 59.6366C60.3334 59.8233 59.6465 59.9231 58.9554 59.9335C58.9004 59.934 58.8552 59.8899 58.8544 59.8348L58.7726 54.3018C58.7711 54.1981 58.6213 54.1851 58.6019 54.287ZM497.959 44.1786C495.991 44.3159 494.053 44.4786 492.145 44.6678L486.181 45.2596C484.193 45.4567 483.143 47.8741 484.477 49.3605L488.776 54.1483C491.438 57.1137 494.069 60.1059 496.668 63.1241C497.737 64.3647 499.782 63.6639 499.855 62.0282C499.939 60.1326 499.991 58.2307 500.01 56.3241L500.072 50.3309C500.088 48.6955 499.994 47.0711 499.789 45.4559C499.69 44.674 498.998 44.1056 498.211 44.1609L497.959 44.1786Z" fill="#C9C4B5"/>
</svg>
