<svg width="448" height="153" viewBox="0 0 448 153" fill="none" xmlns="http://www.w3.org/2000/svg">
<path d="M117.58 29.867L83.484 107.658C76.6318 122.794 79.3917 129.043 81.9611 131.3C85.0758 134.035 91.4923 134.521 97.8183 131.753C106.809 127.818 109.998 120.303 109.302 115.39C108.967 113.026 107.863 110.94 106.234 109.211C104.294 107.153 100.81 106.55 95.2239 109.387L91.4321 102.272C98.5618 97.9801 105.802 98.6881 110.692 101.397C115.664 104.152 118.476 108.856 119.203 113.987C120.631 124.065 114.224 135.489 101.827 140.914C93.7771 144.437 82.6448 145.208 75.3629 138.814C67.539 131.943 67.0584 119.66 74.4038 103.468L74.4349 103.399L74.4684 103.331L88.9986 73.7177C81.9556 77.2907 73.6453 78.4615 64.9069 73.8517L69.5733 65.0069C75.2187 67.985 80.4584 67.1737 85.7281 64.1229C91.0111 61.0643 98.4196 51.9558 101.994 45.7923C95.1769 50.9131 84.9508 55.2997 73.8135 54.9651L74.1137 44.9694C89.6786 45.437 100.643 35.5143 110.197 24.892L117.58 29.867ZM27.5103 41.7793C35.975 31.7851 50.7463 27.9932 60.5983 36.3375C70.4502 44.6818 69.1405 59.8749 60.676 69.8691C52.2113 79.8633 37.441 83.6555 27.5889 75.3111C17.7369 66.9668 19.0456 51.7735 27.5103 41.7793ZM54.1345 43.969C49.8841 40.3691 41.338 40.9272 35.1417 48.2431C28.9456 55.5589 29.8014 64.0802 34.0515 67.6803C38.3019 71.2802 46.8489 70.7225 53.0452 63.4065C59.2416 56.0905 58.3849 47.5689 54.1345 43.969Z" fill="#C9C4B5"/>
<path d="M194.894 20.3622C191.222 36.9384 189.483 53.3074 189.011 68.6169C190.975 67.4971 192.968 66.5091 194.873 65.6521C199.828 63.4243 204.584 61.9053 207.556 61.1695L209.958 70.8769C207.553 71.4724 203.366 72.7974 198.974 74.7725C195.261 76.4422 191.666 78.4611 188.893 80.7145C189.22 110.437 194.015 134.643 197.593 146.183L188.041 149.144C186.071 142.788 183.834 133.181 182.062 121.264C176.701 122.26 169.279 124.125 161.078 126.612C150.15 129.925 138.236 134.222 128.6 138.709L124.378 129.644C128.134 127.895 133.979 124.476 139 120.07C144.167 115.536 147.625 110.69 148.197 106.195L158.117 107.458C157.612 111.43 155.996 115.099 153.817 118.398C155.284 117.93 156.74 117.478 158.176 117.042C166.654 114.471 174.703 112.43 180.767 111.338C179.651 101.438 178.914 90.3548 178.875 78.4967C178.813 59.8625 180.473 39.2309 185.131 18.1995L194.894 20.3622ZM166.288 54.918C159.989 57.5041 150.517 62.2429 142.693 67.9521C138.779 70.8087 135.454 73.7805 133.143 76.7016C130.8 79.6636 129.831 82.1477 129.806 84.1275C129.767 87.0947 130.749 88.3542 131.809 89.1031C133.188 90.0764 135.538 90.7298 138.876 90.761C145.556 90.8235 153.397 88.3882 156.865 86.5475C158.613 85.6199 158.954 84.9559 158.987 84.8804C158.998 84.8561 159.006 84.8388 159.004 84.7673C159 84.6713 158.971 84.4308 158.8 84.0158C158.434 83.1257 157.595 81.8558 156.04 80.2149C154.521 78.6113 152.521 76.8637 150.111 74.9914L156.245 67.0937C158.88 69.14 161.306 71.2324 163.299 73.3365C165.257 75.4033 167.019 77.7094 168.048 80.2102C169.121 82.8171 169.476 85.8758 168.139 88.9105C166.864 91.8048 164.399 93.8706 161.554 95.3806C156.772 97.9193 147.298 100.84 138.782 100.76C134.523 100.72 129.804 99.9281 126.042 97.272C121.962 94.3915 119.731 89.8368 119.806 83.9981C119.872 78.9332 122.256 74.3462 125.301 70.4971C128.379 66.607 132.48 63.0265 136.798 59.8752C138.468 58.6564 140.198 57.4819 141.95 56.3611C133.401 55.7414 123.871 53.7584 116.82 48.66L120.807 39.111C126.104 43.2691 135.185 45.9087 143.284 46.4305C151.243 46.9432 158.948 46.1971 163.497 45.3729L166.288 54.918ZM138.916 18.71C143.351 29.6311 157.032 30.4429 162.214 30.4033L162.788 40.3501C155.525 40.4057 136.268 38.7647 129.652 22.4722L138.916 18.71Z" fill="#C9C4B5"/>
<path d="M261.981 100.374C265.842 100.397 269.108 100.806 271.618 101.596C272.864 101.988 274.148 102.542 275.252 103.363C276.324 104.16 277.679 105.562 278.056 107.696C278.352 109.372 278.244 111.967 277.622 114.65C276.974 117.444 275.658 120.834 273.104 123.836C268.146 129.664 259.851 132.633 247.438 129.965C247.292 130.74 247.268 131.515 247.416 132.219C247.667 133.422 248.676 135.724 254.146 137.35C266.948 141.154 274.064 140.446 276.406 139.927L278.571 149.689C274.211 150.656 265.335 151.107 251.298 146.935C243.348 144.573 238.83 140.018 237.627 134.268C236.535 129.048 238.486 124.166 240.352 121.319L242.392 118.209L245.958 119.268C258.435 122.976 263.385 119.827 265.487 117.356C266.741 115.883 267.489 114.083 267.881 112.393C268.002 111.871 268.076 111.4 268.126 110.996C266.85 110.67 264.818 110.391 261.924 110.374C255.39 110.336 239.504 112.645 225.505 118.664L222.648 109.081C236.485 102.552 254.196 100.329 261.981 100.374ZM290.105 89.6806C278.701 88.9838 269.874 88.6989 259.179 90.2536C248.436 91.8152 229.319 98.3067 210.089 105.334L206.161 96.1542C206.079 96.1941 212.093 93.5889 214.927 91.1364C216.481 89.7911 218.448 87.9234 220.512 85.6579C224.689 81.0727 229.002 75.1465 231.303 68.8532L240.695 72.2868C238.839 77.3641 236.044 82.0554 233.066 86.1057C242.633 83.2091 250.538 81.4038 257.74 80.3569C269.493 78.6484 279.163 78.9933 290.715 79.6992L290.105 89.6806ZM236.122 18.9012C226.757 39.5255 226.394 55.8455 227.719 62.5515L217.909 64.4893C216.102 55.3464 216.968 36.8967 227.016 14.7672L236.122 18.9012ZM272.929 23.9033C272.66 29.3074 272.331 34.0723 271.906 38.2545C275.323 39.1979 277.595 40.6325 280.153 41.9114L275.681 50.8556C272.995 49.5126 271.826 48.7948 270.472 48.283C269.7 52.1336 268.692 55.4192 267.299 58.1227C265.401 61.8053 262.746 64.4824 259.118 65.9729C255.695 67.3792 251.903 67.5157 248.099 67.2159C239.123 66.5085 231.834 59.5596 231.365 51.652C231.114 47.4084 232.914 43.2711 236.86 40.4355C240.608 37.7418 245.897 36.4822 252.446 36.5921C256.246 36.6559 259.37 36.7553 261.992 36.908C262.375 33.0603 262.682 28.5918 262.941 23.4052L272.929 23.9033ZM260.558 46.8451C258.349 46.7323 255.643 46.6465 252.279 46.59C246.91 46.4999 244.046 47.5862 242.695 48.5565C241.543 49.3848 241.298 50.2293 241.347 51.0609C241.48 53.3037 244.173 56.8752 248.884 57.2465C252.098 57.4998 254.038 57.2488 255.317 56.7232C256.392 56.2817 257.409 55.4821 258.41 53.5405C259.2 52.0083 259.924 49.8588 260.558 46.8451Z" fill="#C9C4B5"/>
<path d="M354.713 31.2042C359.369 77.0649 348.548 130.286 341.347 148.007L332.082 144.243C338.889 127.492 349.205 75.9564 344.765 32.2153L354.713 31.2042ZM333.662 51.3621C329.298 59.5967 323.228 70.7738 316.962 81.8674C319.923 86.5192 323.524 90.7013 326.985 94.0905C331.08 98.1003 333.276 99.4748 335.09 100.46L332.796 110.396C329.881 108.813 324.462 105.615 319.989 101.235C317.164 98.4689 314.2 95.182 311.457 91.4914C307.471 98.3514 303.747 104.505 300.411 109.619C296.091 116.243 291.962 121.197 288.771 124.446L282.361 116.77C285.171 113.993 287.532 111.062 292.035 104.156C296.316 97.5923 302.205 89.3005 307.695 79.6429C311.537 72.8829 314.481 65.8313 317.914 59.5304C310.882 61.993 301.97 63.9452 290.775 63.6195L291.065 53.6238C308.643 54.1352 319.504 48.3238 326.998 44.5538L333.662 51.3621Z" fill="#C9C4B5"/>
<path d="M415.929 46.8259C401.441 48.2059 388.608 58.0943 381.933 68.1461C378.558 73.2292 377.25 77.6184 377.434 80.3725C377.518 81.6299 377.889 82.3267 378.284 82.7487C378.685 83.1766 379.531 83.768 381.366 84.0433C387.498 84.9635 390.709 84.382 393.699 84.379C396.624 84.376 399.206 84.0586 403.618 83.4965C405.059 83.0945 404.622 83.2629 405.141 83.0558C405.915 82.7468 407.38 82.0882 411.891 80.1228L416.481 88.3557C412.187 90.2264 410.41 91.0224 409.443 91.4084C409.052 91.5646 408.702 91.6848 408.377 91.7861C400.15 104.436 389.962 115.205 380.269 121.325C399.878 122.144 416.955 125.61 425.078 127.928L422.335 137.544C411.378 134.419 380.421 128.241 352.181 131.478L354.505 120.542C367.014 120.411 380.993 110.675 394.852 93.4386C395.035 93.4384 394.671 93.4408 394.852 93.4386C390.831 94.5802 386.773 94.967 379.882 93.9331C376.366 93.4056 373.266 92.0187 370.988 89.5875C368.704 87.1506 367.661 84.1076 367.456 81.0388C367.062 75.1392 369.677 68.5262 373.603 62.6146C376.531 58.2053 380.462 53.7768 385.172 49.8581C381.977 50.0185 378.801 50.0942 375.785 50.0336C370.98 49.937 366.258 49.4942 362.443 48.3387L361.922 38.7244C364.427 39.483 371.566 40.5518 376.062 40.6422C380.487 40.7311 384.944 40.4367 389.894 40.05C400.084 39.2541 408.474 37.5971 415.016 36.2895L415.929 46.8259Z" fill="#C9C4B5"/>
</svg>
