<svg width="449" height="145" viewBox="0 0 449 145" fill="none" xmlns="http://www.w3.org/2000/svg">
<path d="M87.1811 99.5545C112.478 92.3712 115.51 120.814 94.4086 130.8C80.2244 137.512 59.3436 132.406 72.6434 100.629L96.734 47.6351L104.942 22.7177C94.8359 32.3614 85.9932 44.8324 67.8794 44.8229M59.8664 64.886C75.2089 72.4097 88.1143 58.8498 96.734 47.6351M47.6239 39.8142C54.8483 45.5757 54.9718 57.4349 47.8998 66.3025C40.8278 75.17 29.2383 77.688 22.014 71.9265C14.7896 66.1651 14.6661 54.3058 21.7381 45.4383C28.8101 36.5707 40.3996 34.0527 47.6239 39.8142Z" stroke="#C9C4B5" stroke-width="10"/>
<path d="M117.51 35.5916C129.949 44.0381 152.551 42.021 162.297 39.9566C149.343 45.7273 123.494 60.7909 123.728 74.8801C124.021 92.4915 150.203 85.3843 158.32 80.7633C167.362 75.6161 162.021 68.5647 151.703 61.0284M152.739 96.7975C151.497 109.537 134.988 120.856 126.889 124.923C146.433 115.109 174.951 105.995 186.143 104.568M133.662 9.03316C139.586 22.4712 153.504 25.3682 159.723 25.137M193.586 136.447C189.397 124.224 183.631 98.7453 182.606 67.5567C182.005 49.2327 183.04 28.9377 186.994 8.20249M182.606 67.5567C189.403 60.5831 201.774 55.8609 207.11 54.3715" stroke="#C9C4B5" stroke-width="10"/>
<path d="M226.606 12.2577C217.534 33.9119 217.433 51.307 219.232 59.1818M263.157 18.0018C262.48 51.3004 258.923 57.8274 244.86 57.1357C231.147 56.4613 224.284 36.6935 248.12 36.3903C267.189 36.1478 267.2 37.3643 273.805 40.4268M232.619 65.8394C227.821 80.2695 214.287 92.3144 212.078 93.4857C250.41 78.1811 264.435 77.6228 287.423 78.3476M227.993 106.352C255.777 97.1699 270.176 99.4386 270.857 102.723C271.537 106.007 270.275 126.364 242.728 119.055C239.996 123.504 237.914 133.297 251.446 136.888C264.978 140.478 272.954 139.663 276.281 138.821" stroke="#C9C4B5" stroke-width="10"/>
<path d="M327.541 36.2728L332.026 38.4826L325.163 31.8744L327.541 36.2728ZM289.517 47.0003L289.519 52.0003C309.772 51.9918 322.347 44.7647 329.919 40.6713L327.541 36.2728L325.163 31.8744C317.784 35.8639 307.1 41.9929 289.515 42.0003L289.517 47.0003ZM327.541 36.2728L323.056 34.063C318.657 42.9913 312.394 55.3728 306.032 67.3771L310.45 69.7186L314.867 72.0602C321.284 59.9544 327.592 47.4835 332.026 38.4826L327.541 36.2728ZM310.45 69.7186L306.032 67.3771C300.829 77.1925 296.061 85.7947 291.975 92.482C287.77 99.3653 284.617 103.656 282.677 105.376L285.994 109.117L289.311 112.859C292.53 110.005 296.386 104.444 300.509 97.6954C304.751 90.7508 309.631 81.9405 314.867 72.0602L310.45 69.7186ZM310.45 69.7186L306.175 72.3126C310.125 78.8215 315.177 84.442 319.83 88.7374C324.431 92.984 328.907 96.1776 331.867 97.6737L334.123 93.2114L336.378 88.749C334.537 87.8182 330.824 85.2766 326.613 81.3892C322.454 77.5505 318.07 72.6381 314.724 67.1247L310.45 69.7186ZM350.017 25.0002L345.059 25.6518C350.788 69.2432 339.497 114.426 333.187 131.37L337.873 133.115L342.559 134.86C349.234 116.934 360.981 70.0524 354.974 24.3487L350.017 25.0002Z" fill="#C9C4B5"/>
<path d="M366.402 36.6789C379.148 40.1326 408 34.6911 417.891 33.4536C385.343 37.5258 362.978 79.0217 384.466 81.6003C396.916 83.0943 399.637 82.6511 408.717 81.2201M417.891 77.2414C409.203 81.3362 411.497 80.3415 408.717 81.2201M408.717 81.2201C394.015 106.454 372.355 117.263 358.202 120.567C387.166 116.377 417.349 121.149 428.821 124.058" stroke="#C9C4B5" stroke-width="10"/>
</svg>
